{
    "asset" : {
        "generator" : "Khronos glTF Blender I/O v1.4.40",
        "version" : "2.0"
    },
    "scene" : 0,
    "scenes" : [
        {
            "name" : "Scene",
            "nodes" : [
                25
            ]
        }
    ],
    "nodes" : [
        {
            "name" : "Lhand",
            "translation" : [
                4.591799736022949,
                0,
                0
            ]
        },
        {
            "children" : [
                0
            ],
            "name" : "Larm2",
            "translation" : [
                5.609030723571777,
                0,
                0
            ]
        },
        {
            "children" : [
                1
            ],
            "name" : "Larm1",
            "translation" : [
                6.599976539611816,
                4.300000190734863,
                1.600000023841858
            ]
        },
        {
            "name" : "Rhand",
            "translation" : [
                -5.588600158691406,
                -3.814697265625e-05,
                0
            ]
        },
        {
            "children" : [
                3
            ],
            "name" : "Rarm2",
            "translation" : [
                -5.61959981918335,
                -4.00543212890625e-05,
                0
            ]
        },
        {
            "children" : [
                4
            ],
            "name" : "Rarm1",
            "translation" : [
                -6.600022792816162,
                4.299954414367676,
                1.600000023841858
            ]
        },
        {
            "name" : "feel",
            "translation" : [
                0.021273668855428696,
                7.981899261474609,
                8.23915958404541
            ]
        },
        {
            "name" : "mouth",
            "rotation" : [
                0,
                -0.7071068286895752,
                0,
                0.7071068286895752
            ],
            "scale" : [
                1,
                0.9999999403953552,
                1
            ],
            "translation" : [
                -3.0000010156072676e-06,
                1,
                14.999999046325684
            ]
        },
        {
            "children" : [
                6,
                7
            ],
            "name" : "head",
            "translation" : [
                -2.2003605408826843e-05,
                8.001200675964355,
                0
            ]
        },
        {
            "children" : [
                2,
                5,
                8
            ],
            "name" : "chest",
            "translation" : [
                -1.2666600014199503e-05,
                4.222199440002441,
                0
            ]
        },
        {
            "name" : "Lfoot3",
            "translation" : [
                1.9550323486328125e-05,
                -3.200000286102295,
                0
            ]
        },
        {
            "children" : [
                10
            ],
            "name" : "Lfoot2",
            "translation" : [
                2.384185791015625e-05,
                -4,
                0
            ]
        },
        {
            "children" : [
                11
            ],
            "name" : "Lfoot1",
            "translation" : [
                4.500017166137695,
                -2.9999728202819824,
                -2.4000000953674316
            ]
        },
        {
            "name" : "Rfoot3",
            "translation" : [
                1.9550323486328125e-05,
                -3.1999998092651367,
                0
            ]
        },
        {
            "children" : [
                13
            ],
            "name" : "Rfoot2",
            "translation" : [
                2.384185791015625e-05,
                -4,
                0
            ]
        },
        {
            "children" : [
                14
            ],
            "name" : "Rfoot1",
            "translation" : [
                -4.499982833862305,
                -3.0000271797180176,
                -2.4000000953674316
            ]
        },
        {
            "name" : "tail2",
            "translation" : [
                5.200000286102295,
                4.76837158203125e-07,
                2.27299778998713e-07
            ]
        },
        {
            "children" : [
                16
            ],
            "name" : "tail1",
            "rotation" : [
                0,
                0.7071068286895752,
                0,
                0.7071068286895752
            ],
            "scale" : [
                1,
                0.9999999403953552,
                1
            ],
            "translation" : [
                2.0100002075196244e-05,
                -2.6999998092651367,
                -5.599999904632568
            ]
        },
        {
            "children" : [
                12,
                15,
                17
            ],
            "name" : "waist",
            "translation" : [
                -5.000003511668183e-06,
                0,
                0
            ]
        },
        {
            "children" : [
                9,
                18
            ],
            "name" : "base",
            "translation" : [
                6.000000212225132e-06,
                10,
                0
            ]
        },
        {
            "children" : [
                19
            ],
            "name" : "root",
            "rotation" : [
                -0.7071068286895752,
                0,
                0,
                0.7071068286895752
            ]
        },
        {
            "mesh" : 0,
            "name" : "mesh_0_",
            "skin" : 0
        },
        {
            "mesh" : 1,
            "name" : "mesh_1_",
            "skin" : 0
        },
        {
            "mesh" : 2,
            "name" : "mesh_2_",
            "skin" : 0
        },
        {
            "mesh" : 3,
            "name" : "mesh_3_",
            "skin" : 0
        },
        {
            "children" : [
                21,
                22,
                23,
                24,
                20
            ],
            "name" : "Armature",
            "rotation" : [
                0.7071068286895752,
                0,
                0,
                0.7071067094802856
            ]
        }
    ],
    "materials" : [
        {
            "doubleSided" : true,
            "name" : "b0",
            "pbrMetallicRoughness" : {
                "baseColorTexture" : {
                    "index" : 0,
                    "texCoord" : 0
                },
                "metallicFactor" : 0,
                "roughnessFactor" : 0.5
            }
        },
        {
            "doubleSided" : true,
            "name" : "e",
            "pbrMetallicRoughness" : {
                "baseColorTexture" : {
                    "index" : 1,
                    "texCoord" : 0
                },
                "metallicFactor" : 0,
                "roughnessFactor" : 0.5
            }
        },
        {
            "doubleSided" : true,
            "name" : "cloth",
            "pbrMetallicRoughness" : {
                "baseColorTexture" : {
                    "index" : 2,
                    "texCoord" : 0
                },
                "metallicFactor" : 0,
                "roughnessFactor" : 0.5
            }
        },
        {
            "doubleSided" : true,
            "name" : "stick",
            "pbrMetallicRoughness" : {
                "baseColorTexture" : {
                    "index" : 3,
                    "texCoord" : 0
                },
                "metallicFactor" : 0,
                "roughnessFactor" : 0.5
            }
        }
    ],
    "meshes" : [
        {
            "name" : "mesh_0_",
            "primitives" : [
                {
                    "attributes" : {
                        "POSITION" : 0,
                        "NORMAL" : 1,
                        "TEXCOORD_0" : 2,
                        "JOINTS_0" : 3,
                        "WEIGHTS_0" : 4
                    },
                    "indices" : 5,
                    "material" : 0
                }
            ]
        },
        {
            "name" : "mesh_1_",
            "primitives" : [
                {
                    "attributes" : {
                        "POSITION" : 7,
                        "NORMAL" : 8,
                        "TEXCOORD_0" : 9,
                        "JOINTS_0" : 10,
                        "WEIGHTS_0" : 11
                    },
                    "indices" : 12,
                    "material" : 1
                }
            ]
        },
        {
            "name" : "mesh_2_",
            "primitives" : [
                {
                    "attributes" : {
                        "POSITION" : 13,
                        "NORMAL" : 14,
                        "TEXCOORD_0" : 15,
                        "JOINTS_0" : 16,
                        "WEIGHTS_0" : 17
                    },
                    "indices" : 18,
                    "material" : 2
                }
            ]
        },
        {
            "name" : "mesh_3_",
            "primitives" : [
                {
                    "attributes" : {
                        "POSITION" : 19,
                        "NORMAL" : 20,
                        "TEXCOORD_0" : 21,
                        "JOINTS_0" : 22,
                        "WEIGHTS_0" : 23
                    },
                    "indices" : 24,
                    "material" : 3
                }
            ]
        }
    ],
    "textures" : [
        {
            "sampler" : 0,
            "source" : 0
        },
        {
            "sampler" : 0,
            "source" : 1
        },
        {
            "sampler" : 0,
            "source" : 2
        },
        {
            "sampler" : 0,
            "source" : 3
        }
    ],
    "images" : [
        {
            "bufferView" : 6,
            "mimeType" : "image/png",
            "name" : "b0"
        },
        {
            "bufferView" : 14,
            "mimeType" : "image/png",
            "name" : "e.0"
        },
        {
            "bufferView" : 21,
            "mimeType" : "image/png",
            "name" : "cloth"
        },
        {
            "bufferView" : 28,
            "mimeType" : "image/png",
            "name" : "stick"
        }
    ],
    "skins" : [
        {
            "inverseBindMatrices" : 6,
            "joints" : [
                20,
                19,
                9,
                2,
                1,
                0,
                5,
                4,
                3,
                8,
                6,
                7,
                18,
                12,
                11,
                10,
                15,
                14,
                13,
                17,
                16
            ],
            "name" : "Armature"
        }
    ],
    "accessors" : [
        {
            "bufferView" : 0,
            "componentType" : 5126,
            "count" : 513,
            "max" : [
                18.244600296020508,
                42.55379867553711,
                22.16730308532715
            ],
            "min" : [
                -18.244699478149414,
                -0.3120306730270386,
                -13.898396492004395
            ],
            "type" : "VEC3"
        },
        {
            "bufferView" : 1,
            "componentType" : 5126,
            "count" : 513,
            "type" : "VEC3"
        },
        {
            "bufferView" : 2,
            "componentType" : 5126,
            "count" : 513,
            "type" : "VEC2"
        },
        {
            "bufferView" : 3,
            "componentType" : 5121,
            "count" : 513,
            "type" : "VEC4"
        },
        {
            "bufferView" : 4,
            "componentType" : 5126,
            "count" : 513,
            "type" : "VEC4"
        },
        {
            "bufferView" : 5,
            "componentType" : 5123,
            "count" : 1938,
            "type" : "SCALAR"
        },
        {
            "bufferView" : 7,
            "componentType" : 5126,
            "count" : 21,
            "type" : "MAT4"
        },
        {
            "bufferView" : 8,
            "componentType" : 5126,
            "count" : 22,
            "max" : [
                8.171979904174805,
                35.55679702758789,
                14.891804695129395
            ],
            "min" : [
                -8.172080039978027,
                24.939598083496094,
                5.7336955070495605
            ],
            "type" : "VEC3"
        },
        {
            "bufferView" : 9,
            "componentType" : 5126,
            "count" : 22,
            "type" : "VEC3"
        },
        {
            "bufferView" : 10,
            "componentType" : 5126,
            "count" : 22,
            "type" : "VEC2"
        },
        {
            "bufferView" : 11,
            "componentType" : 5121,
            "count" : 22,
            "type" : "VEC4"
        },
        {
            "bufferView" : 12,
            "componentType" : 5126,
            "count" : 22,
            "type" : "VEC4"
        },
        {
            "bufferView" : 13,
            "componentType" : 5123,
            "count" : 60,
            "type" : "SCALAR"
        },
        {
            "bufferView" : 15,
            "componentType" : 5126,
            "count" : 117,
            "max" : [
                10.498899459838867,
                24.835498809814453,
                5.827672481536865
            ],
            "min" : [
                -10.499000549316406,
                7.156649112701416,
                -8.761568069458008
            ],
            "type" : "VEC3"
        },
        {
            "bufferView" : 16,
            "componentType" : 5126,
            "count" : 117,
            "type" : "VEC3"
        },
        {
            "bufferView" : 17,
            "componentType" : 5126,
            "count" : 117,
            "type" : "VEC2"
        },
        {
            "bufferView" : 18,
            "componentType" : 5121,
            "count" : 117,
            "type" : "VEC4"
        },
        {
            "bufferView" : 19,
            "componentType" : 5126,
            "count" : 117,
            "type" : "VEC4"
        },
        {
            "bufferView" : 20,
            "componentType" : 5123,
            "count" : 402,
            "type" : "SCALAR"
        },
        {
            "bufferView" : 22,
            "componentType" : 5126,
            "count" : 30,
            "max" : [
                -14.370399475097656,
                19.174999237060547,
                9.422731399536133
            ],
            "min" : [
                -24.21419906616211,
                3.610438585281372,
                1.699512243270874
            ],
            "type" : "VEC3"
        },
        {
            "bufferView" : 23,
            "componentType" : 5126,
            "count" : 30,
            "type" : "VEC3"
        },
        {
            "bufferView" : 24,
            "componentType" : 5126,
            "count" : 30,
            "type" : "VEC2"
        },
        {
            "bufferView" : 25,
            "componentType" : 5121,
            "count" : 30,
            "type" : "VEC4"
        },
        {
            "bufferView" : 26,
            "componentType" : 5126,
            "count" : 30,
            "type" : "VEC4"
        },
        {
            "bufferView" : 27,
            "componentType" : 5123,
            "count" : 168,
            "type" : "SCALAR"
        }
    ],
    "bufferViews" : [
        {
            "buffer" : 0,
            "byteLength" : 6156,
            "byteOffset" : 0
        },
        {
            "buffer" : 0,
            "byteLength" : 6156,
            "byteOffset" : 6156
        },
        {
            "buffer" : 0,
            "byteLength" : 4104,
            "byteOffset" : 12312
        },
        {
            "buffer" : 0,
            "byteLength" : 2052,
            "byteOffset" : 16416
        },
        {
            "buffer" : 0,
            "byteLength" : 8208,
            "byteOffset" : 18468
        },
        {
            "buffer" : 0,
            "byteLength" : 3876,
            "byteOffset" : 26676
        },
        {
            "buffer" : 0,
            "byteLength" : 7004,
            "byteOffset" : 30552
        },
        {
            "buffer" : 0,
            "byteLength" : 1344,
            "byteOffset" : 37556
        },
        {
            "buffer" : 0,
            "byteLength" : 264,
            "byteOffset" : 38900
        },
        {
            "buffer" : 0,
            "byteLength" : 264,
            "byteOffset" : 39164
        },
        {
            "buffer" : 0,
            "byteLength" : 176,
            "byteOffset" : 39428
        },
        {
            "buffer" : 0,
            "byteLength" : 88,
            "byteOffset" : 39604
        },
        {
            "buffer" : 0,
            "byteLength" : 352,
            "byteOffset" : 39692
        },
        {
            "buffer" : 0,
            "byteLength" : 120,
            "byteOffset" : 40044
        },
        {
            "buffer" : 0,
            "byteLength" : 809,
            "byteOffset" : 40164
        },
        {
            "buffer" : 0,
            "byteLength" : 1404,
            "byteOffset" : 40976
        },
        {
            "buffer" : 0,
            "byteLength" : 1404,
            "byteOffset" : 42380
        },
        {
            "buffer" : 0,
            "byteLength" : 936,
            "byteOffset" : 43784
        },
        {
            "buffer" : 0,
            "byteLength" : 468,
            "byteOffset" : 44720
        },
        {
            "buffer" : 0,
            "byteLength" : 1872,
            "byteOffset" : 45188
        },
        {
            "buffer" : 0,
            "byteLength" : 804,
            "byteOffset" : 47060
        },
        {
            "buffer" : 0,
            "byteLength" : 2621,
            "byteOffset" : 47864
        },
        {
            "buffer" : 0,
            "byteLength" : 360,
            "byteOffset" : 50488
        },
        {
            "buffer" : 0,
            "byteLength" : 360,
            "byteOffset" : 50848
        },
        {
            "buffer" : 0,
            "byteLength" : 240,
            "byteOffset" : 51208
        },
        {
            "buffer" : 0,
            "byteLength" : 120,
            "byteOffset" : 51448
        },
        {
            "buffer" : 0,
            "byteLength" : 480,
            "byteOffset" : 51568
        },
        {
            "buffer" : 0,
            "byteLength" : 336,
            "byteOffset" : 52048
        },
        {
            "buffer" : 0,
            "byteLength" : 159,
            "byteOffset" : 52384
        }
    ],
    "samplers" : [
        {
            "magFilter" : 9729,
            "minFilter" : 9986
        }
    ],
    "buffers" : [
        {
            "byteLength" : 52544,
            "uri" : "data:application/octet-stream;base64,"
        }
    ]
}
