{
    "asset" : {
        "generator" : "Khronos glTF Blender I/O v1.4.40",
        "version" : "2.0"
    },
    "scene" : 0,
    "scenes" : [
        {
            "name" : "Scene",
            "nodes" : [
                0
            ]
        }
    ],
    "nodes" : [
        {
            "mesh" : 0,
            "name" : "mesh_0_"
        }
    ],
    "materials" : [
        {
            "doubleSided" : true,
            "name" : "b0",
            "pbrMetallicRoughness" : {
                "baseColorTexture" : {
                    "index" : 0,
                    "texCoord" : 0
                },
                "metallicFactor" : 0,
                "roughnessFactor" : 0.5
            }
        },
        {
            "doubleSided" : true,
            "name" : "e",
            "pbrMetallicRoughness" : {
                "baseColorTexture" : {
                    "index" : 1,
                    "texCoord" : 0
                },
                "metallicFactor" : 0,
                "roughnessFactor" : 0.5
            }
        },
        {
            "doubleSided" : true,
            "name" : "cloth",
            "pbrMetallicRoughness" : {
                "baseColorTexture" : {
                    "index" : 2,
                    "texCoord" : 0
                },
                "metallicFactor" : 0,
                "roughnessFactor" : 0.5
            }
        },
        {
            "doubleSided" : true,
            "name" : "stick",
            "pbrMetallicRoughness" : {
                "baseColorTexture" : {
                    "index" : 3,
                    "texCoord" : 0
                },
                "metallicFactor" : 0,
                "roughnessFactor" : 0.5
            }
        },
        {
            "alphaMode" : "BLEND",
            "doubleSided" : true,
            "name" : "Material.002",
            "pbrMetallicRoughness" : {}
        }
    ],
    "meshes" : [
        {
            "name" : "mesh_0_",
            "primitives" : [
                {
                    "attributes" : {
                        "POSITION" : 0,
                        "NORMAL" : 1,
                        "TEXCOORD_0" : 2
                    },
                    "indices" : 3,
                    "material" : 0
                },
                {
                    "attributes" : {
                        "POSITION" : 4,
                        "NORMAL" : 5,
                        "TEXCOORD_0" : 6
                    },
                    "indices" : 7,
                    "material" : 1
                },
                {
                    "attributes" : {
                        "POSITION" : 8,
                        "NORMAL" : 9,
                        "TEXCOORD_0" : 10
                    },
                    "indices" : 11,
                    "material" : 2
                },
                {
                    "attributes" : {
                        "POSITION" : 12,
                        "NORMAL" : 13,
                        "TEXCOORD_0" : 14
                    },
                    "indices" : 15,
                    "material" : 3
                },
                {
                    "attributes" : {
                        "POSITION" : 16,
                        "NORMAL" : 17,
                        "TEXCOORD_0" : 18
                    },
                    "indices" : 19,
                    "material" : 4
                }
            ]
        }
    ],
    "textures" : [
        {
            "sampler" : 0,
            "source" : 0
        },
        {
            "sampler" : 0,
            "source" : 1
        },
        {
            "sampler" : 0,
            "source" : 2
        },
        {
            "sampler" : 0,
            "source" : 3
        }
    ],
    "images" : [
        {
            "bufferView" : 4,
            "mimeType" : "image/png",
            "name" : "b0"
        },
        {
            "bufferView" : 9,
            "mimeType" : "image/png",
            "name" : "e.0"
        },
        {
            "bufferView" : 14,
            "mimeType" : "image/png",
            "name" : "cloth"
        },
        {
            "bufferView" : 19,
            "mimeType" : "image/png",
            "name" : "stick"
        }
    ],
    "accessors" : [
        {
            "bufferView" : 0,
            "componentType" : 5126,
            "count" : 524,
            "max" : [
                18.244600296020508,
                22.16729736328125,
                0.31203165650367737
            ],
            "min" : [
                -18.244699478149414,
                -13.89840316772461,
                -42.55380630493164
            ],
            "type" : "VEC3"
        },
        {
            "bufferView" : 1,
            "componentType" : 5126,
            "count" : 524,
            "type" : "VEC3"
        },
        {
            "bufferView" : 2,
            "componentType" : 5126,
            "count" : 524,
            "type" : "VEC2"
        },
        {
            "bufferView" : 3,
            "componentType" : 5123,
            "count" : 1938,
            "type" : "SCALAR"
        },
        {
            "bufferView" : 5,
            "componentType" : 5126,
            "count" : 22,
            "max" : [
                8.171979904174805,
                14.891798973083496,
                -24.939603805541992
            ],
            "min" : [
                -8.172080039978027,
                5.7336859703063965,
                -35.55680465698242
            ],
            "type" : "VEC3"
        },
        {
            "bufferView" : 6,
            "componentType" : 5126,
            "count" : 22,
            "type" : "VEC3"
        },
        {
            "bufferView" : 7,
            "componentType" : 5126,
            "count" : 22,
            "type" : "VEC2"
        },
        {
            "bufferView" : 8,
            "componentType" : 5123,
            "count" : 60,
            "type" : "SCALAR"
        },
        {
            "bufferView" : 10,
            "componentType" : 5126,
            "count" : 117,
            "max" : [
                10.498899459838867,
                5.827667713165283,
                -7.156651020050049
            ],
            "min" : [
                -10.499000549316406,
                -8.76157283782959,
                -24.83550262451172
            ],
            "type" : "VEC3"
        },
        {
            "bufferView" : 11,
            "componentType" : 5126,
            "count" : 117,
            "type" : "VEC3"
        },
        {
            "bufferView" : 12,
            "componentType" : 5126,
            "count" : 117,
            "type" : "VEC2"
        },
        {
            "bufferView" : 13,
            "componentType" : 5123,
            "count" : 402,
            "type" : "SCALAR"
        },
        {
            "bufferView" : 15,
            "componentType" : 5126,
            "count" : 30,
            "max" : [
                -14.370399475097656,
                9.422727584838867,
                -3.6104414463043213
            ],
            "min" : [
                -24.21419906616211,
                1.6995083093643188,
                -19.175003051757812
            ],
            "type" : "VEC3"
        },
        {
            "bufferView" : 16,
            "componentType" : 5126,
            "count" : 30,
            "type" : "VEC3"
        },
        {
            "bufferView" : 17,
            "componentType" : 5126,
            "count" : 30,
            "type" : "VEC2"
        },
        {
            "bufferView" : 18,
            "componentType" : 5123,
            "count" : 168,
            "type" : "SCALAR"
        },
        {
            "bufferView" : 20,
            "componentType" : 5126,
            "count" : 24,
            "max" : [
                20,
                25,
                5
            ],
            "min" : [
                -20,
                -15,
                -45
            ],
            "type" : "VEC3"
        },
        {
            "bufferView" : 21,
            "componentType" : 5126,
            "count" : 24,
            "type" : "VEC3"
        },
        {
            "bufferView" : 22,
            "componentType" : 5126,
            "count" : 24,
            "type" : "VEC2"
        },
        {
            "bufferView" : 23,
            "componentType" : 5123,
            "count" : 36,
            "type" : "SCALAR"
        }
    ],
    "bufferViews" : [
        {
            "buffer" : 0,
            "byteLength" : 6288,
            "byteOffset" : 0
        },
        {
            "buffer" : 0,
            "byteLength" : 6288,
            "byteOffset" : 6288
        },
        {
            "buffer" : 0,
            "byteLength" : 4192,
            "byteOffset" : 12576
        },
        {
            "buffer" : 0,
            "byteLength" : 3876,
            "byteOffset" : 16768
        },
        {
            "buffer" : 0,
            "byteLength" : 7004,
            "byteOffset" : 20644
        },
        {
            "buffer" : 0,
            "byteLength" : 264,
            "byteOffset" : 27648
        },
        {
            "buffer" : 0,
            "byteLength" : 264,
            "byteOffset" : 27912
        },
        {
            "buffer" : 0,
            "byteLength" : 176,
            "byteOffset" : 28176
        },
        {
            "buffer" : 0,
            "byteLength" : 120,
            "byteOffset" : 28352
        },
        {
            "buffer" : 0,
            "byteLength" : 809,
            "byteOffset" : 28472
        },
        {
            "buffer" : 0,
            "byteLength" : 1404,
            "byteOffset" : 29284
        },
        {
            "buffer" : 0,
            "byteLength" : 1404,
            "byteOffset" : 30688
        },
        {
            "buffer" : 0,
            "byteLength" : 936,
            "byteOffset" : 32092
        },
        {
            "buffer" : 0,
            "byteLength" : 804,
            "byteOffset" : 33028
        },
        {
            "buffer" : 0,
            "byteLength" : 2621,
            "byteOffset" : 33832
        },
        {
            "buffer" : 0,
            "byteLength" : 360,
            "byteOffset" : 36456
        },
        {
            "buffer" : 0,
            "byteLength" : 360,
            "byteOffset" : 36816
        },
        {
            "buffer" : 0,
            "byteLength" : 240,
            "byteOffset" : 37176
        },
        {
            "buffer" : 0,
            "byteLength" : 336,
            "byteOffset" : 37416
        },
        {
            "buffer" : 0,
            "byteLength" : 159,
            "byteOffset" : 37752
        },
        {
            "buffer" : 0,
            "byteLength" : 288,
            "byteOffset" : 37912
        },
        {
            "buffer" : 0,
            "byteLength" : 288,
            "byteOffset" : 38200
        },
        {
            "buffer" : 0,
            "byteLength" : 192,
            "byteOffset" : 38488
        },
        {
            "buffer" : 0,
            "byteLength" : 72,
            "byteOffset" : 38680
        }
    ],
    "samplers" : [
        {
            "magFilter" : 9729,
            "minFilter" : 9986
        }
    ],
    "buffers" : [
        {
            "byteLength" : 38752,
            "uri" : "data:application/octet-stream;base64,"
        }
    ]
}
