{
    "asset" : {
        "generator" : "Khronos glTF Blender I/O v1.4.40",
        "version" : "2.0"
    },
    "scene" : 0,
    "scenes" : [
        {
            "name" : "Scene",
            "nodes" : [
                0,
                1
            ]
        }
    ],
    "nodes" : [
        {
            "mesh" : 0,
            "name" : "vsn_mesh_1_dobj_shop_kanban_mesh_1_dobj_shop_kanban",
            "rotation" : [
                0.7071068286895752,
                0,
                0,
                0.7071067094802856
            ]
        },
        {
            "mesh" : 1,
            "name" : "vsn_mesh_0_dobj_shop_kanban_mesh_0_dobj_shop_kanban",
            "rotation" : [
                0.7071068286895752,
                0,
                0,
                0.7071067094802856
            ]
        }
    ],
    "materials" : [
        {
            "doubleSided" : true,
            "name" : "CR00_dobj_shop_main_mat",
            "pbrMetallicRoughness" : {
                "baseColorTexture" : {
                    "index" : 0,
                    "texCoord" : 0
                },
                "metallicFactor" : 0
            }
        },
        {
            "doubleSided" : true,
            "name" : "m_dobj_shop_kanban_mat",
            "pbrMetallicRoughness" : {
                "baseColorTexture" : {
                    "index" : 1,
                    "texCoord" : 0
                },
                "metallicFactor" : 0
            }
        }
    ],
    "meshes" : [
        {
            "name" : "vsn_mesh_1_dobj_shop_kanban_mesh_1_dobj_shop_kanban",
            "primitives" : [
                {
                    "attributes" : {
                        "POSITION" : 0,
                        "NORMAL" : 1,
                        "TEXCOORD_0" : 2
                    },
                    "indices" : 3,
                    "material" : 0
                }
            ]
        },
        {
            "name" : "vsn_mesh_0_dobj_shop_kanban_mesh_0_dobj_shop_kanban",
            "primitives" : [
                {
                    "attributes" : {
                        "POSITION" : 4,
                        "NORMAL" : 5,
                        "TEXCOORD_0" : 6
                    },
                    "indices" : 7,
                    "material" : 1
                }
            ]
        }
    ],
    "textures" : [
        {
            "sampler" : 0,
            "source" : 0
        },
        {
            "sampler" : 0,
            "source" : 1
        }
    ],
    "images" : [
        {
            "bufferView" : 4,
            "mimeType" : "image/png",
            "name" : "tex_dobj_shop_main"
        },
        {
            "bufferView" : 9,
            "mimeType" : "image/png",
            "name" : "tex_dobj_shop_kanban_JP"
        }
    ],
    "accessors" : [
        {
            "bufferView" : 0,
            "componentType" : 5126,
            "count" : 493,
            "max" : [
                0.44456401467323303,
                0.28329500555992126,
                -8.357577323913574
            ],
            "min" : [
                -1.1200000047683716,
                -0.7561020255088806,
                -9.376394271850586
            ],
            "type" : "VEC3"
        },
        {
            "bufferView" : 1,
            "componentType" : 5126,
            "count" : 493,
            "type" : "VEC3"
        },
        {
            "bufferView" : 2,
            "componentType" : 5126,
            "count" : 493,
            "type" : "VEC2"
        },
        {
            "bufferView" : 3,
            "componentType" : 5123,
            "count" : 1215,
            "type" : "SCALAR"
        },
        {
            "bufferView" : 5,
            "componentType" : 5126,
            "count" : 26,
            "max" : [
                -0.32176899909973145,
                0.13835999369621277,
                -9.176182746887207
            ],
            "min" : [
                -0.9579910039901733,
                0.06638400256633759,
                -9.37617015838623
            ],
            "type" : "VEC3"
        },
        {
            "bufferView" : 6,
            "componentType" : 5126,
            "count" : 26,
            "type" : "VEC3"
        },
        {
            "bufferView" : 7,
            "componentType" : 5126,
            "count" : 26,
            "type" : "VEC2"
        },
        {
            "bufferView" : 8,
            "componentType" : 5123,
            "count" : 36,
            "type" : "SCALAR"
        }
    ],
    "bufferViews" : [
        {
            "buffer" : 0,
            "byteLength" : 5916,
            "byteOffset" : 0
        },
        {
            "buffer" : 0,
            "byteLength" : 5916,
            "byteOffset" : 5916
        },
        {
            "buffer" : 0,
            "byteLength" : 3944,
            "byteOffset" : 11832
        },
        {
            "buffer" : 0,
            "byteLength" : 2430,
            "byteOffset" : 15776
        },
        {
            "buffer" : 0,
            "byteLength" : 32794,
            "byteOffset" : 18208
        },
        {
            "buffer" : 0,
            "byteLength" : 312,
            "byteOffset" : 51004
        },
        {
            "buffer" : 0,
            "byteLength" : 312,
            "byteOffset" : 51316
        },
        {
            "buffer" : 0,
            "byteLength" : 208,
            "byteOffset" : 51628
        },
        {
            "buffer" : 0,
            "byteLength" : 72,
            "byteOffset" : 51836
        },
        {
            "buffer" : 0,
            "byteLength" : 7805,
            "byteOffset" : 51908
        }
    ],
    "samplers" : [
        {
            "magFilter" : 9729,
            "minFilter" : 9986
        }
    ],
    "buffers" : [
        {
            "byteLength" : 59716,
            "uri" : "data:application/octet-stream;base64,"
        }
    ]
}
