{
    "asset" : {
        "generator" : "Khronos glTF Blender I/O v1.4.40",
        "version" : "2.0"
    },
    "extensionsUsed" : [
        "KHR_materials_unlit"
    ],
    "scene" : 0,
    "scenes" : [
        {
            "name" : "Scene",
            "nodes" : [
                5
            ]
        }
    ],
    "nodes" : [
        {
            "mesh" : 0,
            "name" : "seo_mdl_0"
        },
        {
            "mesh" : 1,
            "name" : "seo_mdl_1"
        },
        {
            "mesh" : 2,
            "name" : "seo_mdl_2"
        },
        {
            "mesh" : 3,
            "name" : "seo_mdl_3"
        },
        {
            "mesh" : 4,
            "name" : "seo_mdl_4"
        },
        {
            "children" : [
                0,
                1,
                2,
                3,
                4
            ],
            "name" : "scene.gltf"
        }
    ],
    "materials" : [
        {
            "extensions" : {
                "KHR_materials_unlit" : {}
            },
            "name" : "Material_0",
            "pbrMetallicRoughness" : {
                "baseColorTexture" : {
                    "index" : 0,
                    "texCoord" : 0
                },
                "metallicFactor" : 0,
                "roughnessFactor" : 0.9
            }
        },
        {
            "extensions" : {
                "KHR_materials_unlit" : {}
            },
            "name" : "Material_1",
            "pbrMetallicRoughness" : {
                "baseColorTexture" : {
                    "index" : 1,
                    "texCoord" : 0
                },
                "metallicFactor" : 0,
                "roughnessFactor" : 0.9
            }
        },
        {
            "extensions" : {
                "KHR_materials_unlit" : {}
            },
            "name" : "Material_2",
            "pbrMetallicRoughness" : {
                "baseColorTexture" : {
                    "index" : 2,
                    "texCoord" : 0
                },
                "metallicFactor" : 0,
                "roughnessFactor" : 0.9
            }
        },
        {
            "extensions" : {
                "KHR_materials_unlit" : {}
            },
            "name" : "Material_3",
            "pbrMetallicRoughness" : {
                "baseColorTexture" : {
                    "index" : 3,
                    "texCoord" : 0
                },
                "metallicFactor" : 0,
                "roughnessFactor" : 0.9
            }
        },
        {
            "extensions" : {
                "KHR_materials_unlit" : {}
            },
            "name" : "Material_4",
            "pbrMetallicRoughness" : {
                "baseColorTexture" : {
                    "index" : 4,
                    "texCoord" : 0
                },
                "metallicFactor" : 0,
                "roughnessFactor" : 0.9
            }
        }
    ],
    "meshes" : [
        {
            "name" : "Mesh_0",
            "primitives" : [
                {
                    "attributes" : {
                        "POSITION" : 0,
                        "NORMAL" : 1,
                        "TEXCOORD_0" : 2
                    },
                    "indices" : 3,
                    "material" : 0
                }
            ]
        },
        {
            "name" : "Mesh_1",
            "primitives" : [
                {
                    "attributes" : {
                        "POSITION" : 4,
                        "NORMAL" : 5,
                        "TEXCOORD_0" : 6
                    },
                    "indices" : 7,
                    "material" : 1
                }
            ]
        },
        {
            "name" : "Mesh_2",
            "primitives" : [
                {
                    "attributes" : {
                        "POSITION" : 8,
                        "NORMAL" : 9,
                        "TEXCOORD_0" : 10
                    },
                    "indices" : 11,
                    "material" : 2
                }
            ]
        },
        {
            "name" : "Mesh_3",
            "primitives" : [
                {
                    "attributes" : {
                        "POSITION" : 12,
                        "NORMAL" : 13,
                        "TEXCOORD_0" : 14
                    },
                    "indices" : 15,
                    "material" : 3
                }
            ]
        },
        {
            "name" : "Mesh_4",
            "primitives" : [
                {
                    "attributes" : {
                        "POSITION" : 16,
                        "NORMAL" : 17,
                        "TEXCOORD_0" : 18
                    },
                    "indices" : 19,
                    "material" : 4
                }
            ]
        }
    ],
    "textures" : [
        {
            "sampler" : 0,
            "source" : 0
        },
        {
            "sampler" : 0,
            "source" : 1
        },
        {
            "sampler" : 0,
            "source" : 2
        },
        {
            "sampler" : 0,
            "source" : 3
        },
        {
            "sampler" : 0,
            "source" : 4
        }
    ],
    "images" : [
        {
            "bufferView" : 4,
            "mimeType" : "image/png",
            "name" : "Image_0"
        },
        {
            "bufferView" : 9,
            "mimeType" : "image/png",
            "name" : "Image_1"
        },
        {
            "bufferView" : 14,
            "mimeType" : "image/png",
            "name" : "Image_2"
        },
        {
            "bufferView" : 19,
            "mimeType" : "image/png",
            "name" : "Image_3"
        },
        {
            "bufferView" : 24,
            "mimeType" : "image/png",
            "name" : "Image_4"
        }
    ],
    "accessors" : [
        {
            "bufferView" : 0,
            "componentType" : 5126,
            "count" : 174,
            "max" : [
                0.031679000705480576,
                0.02757999859750271,
                -0.09030900150537491
            ],
            "min" : [
                -0.031679000705480576,
                -0.03125099837779999,
                -0.13328999280929565
            ],
            "type" : "VEC3"
        },
        {
            "bufferView" : 1,
            "componentType" : 5126,
            "count" : 174,
            "type" : "VEC3"
        },
        {
            "bufferView" : 2,
            "componentType" : 5126,
            "count" : 174,
            "type" : "VEC2"
        },
        {
            "bufferView" : 3,
            "componentType" : 5123,
            "count" : 726,
            "type" : "SCALAR"
        },
        {
            "bufferView" : 5,
            "componentType" : 5126,
            "count" : 664,
            "max" : [
                0.051169998943805695,
                0.029898999258875847,
                1.4999999621068127e-05
            ],
            "min" : [
                -0.051169998943805695,
                -0.046817000955343246,
                -0.09918099641799927
            ],
            "type" : "VEC3"
        },
        {
            "bufferView" : 6,
            "componentType" : 5126,
            "count" : 664,
            "type" : "VEC3"
        },
        {
            "bufferView" : 7,
            "componentType" : 5126,
            "count" : 664,
            "type" : "VEC2"
        },
        {
            "bufferView" : 8,
            "componentType" : 5123,
            "count" : 2988,
            "type" : "SCALAR"
        },
        {
            "bufferView" : 10,
            "componentType" : 5126,
            "count" : 418,
            "max" : [
                0.04220899939537048,
                0.04002600163221359,
                -0.060559000819921494
            ],
            "min" : [
                -0.04220899939537048,
                -0.03125099837779999,
                -0.12199900299310684
            ],
            "type" : "VEC3"
        },
        {
            "bufferView" : 11,
            "componentType" : 5126,
            "count" : 418,
            "type" : "VEC3"
        },
        {
            "bufferView" : 12,
            "componentType" : 5126,
            "count" : 418,
            "type" : "VEC2"
        },
        {
            "bufferView" : 13,
            "componentType" : 5123,
            "count" : 1692,
            "type" : "SCALAR"
        },
        {
            "bufferView" : 15,
            "componentType" : 5126,
            "count" : 12,
            "max" : [
                0.01403099950402975,
                0.04728100076317787,
                -0.06827899813652039
            ],
            "min" : [
                -0.01403099950402975,
                0.03804599866271019,
                -0.0828540027141571
            ],
            "type" : "VEC3"
        },
        {
            "bufferView" : 16,
            "componentType" : 5126,
            "count" : 12,
            "type" : "VEC3"
        },
        {
            "bufferView" : 17,
            "componentType" : 5126,
            "count" : 12,
            "type" : "VEC2"
        },
        {
            "bufferView" : 18,
            "componentType" : 5123,
            "count" : 30,
            "type" : "SCALAR"
        },
        {
            "bufferView" : 20,
            "componentType" : 5126,
            "count" : 139,
            "max" : [
                0.03405999764800072,
                0.028730999678373337,
                -0.07349599897861481
            ],
            "min" : [
                -0.03405899927020073,
                -0.03125099837779999,
                -0.10591199994087219
            ],
            "type" : "VEC3"
        },
        {
            "bufferView" : 21,
            "componentType" : 5126,
            "count" : 139,
            "type" : "VEC3"
        },
        {
            "bufferView" : 22,
            "componentType" : 5126,
            "count" : 139,
            "type" : "VEC2"
        },
        {
            "bufferView" : 23,
            "componentType" : 5123,
            "count" : 630,
            "type" : "SCALAR"
        }
    ],
    "bufferViews" : [
        {
            "buffer" : 0,
            "byteLength" : 2088,
            "byteOffset" : 0
        },
        {
            "buffer" : 0,
            "byteLength" : 2088,
            "byteOffset" : 2088
        },
        {
            "buffer" : 0,
            "byteLength" : 1392,
            "byteOffset" : 4176
        },
        {
            "buffer" : 0,
            "byteLength" : 1452,
            "byteOffset" : 5568
        },
        {
            "buffer" : 0,
            "byteLength" : 28148,
            "byteOffset" : 7020
        },
        {
            "buffer" : 0,
            "byteLength" : 7968,
            "byteOffset" : 35168
        },
        {
            "buffer" : 0,
            "byteLength" : 7968,
            "byteOffset" : 43136
        },
        {
            "buffer" : 0,
            "byteLength" : 5312,
            "byteOffset" : 51104
        },
        {
            "buffer" : 0,
            "byteLength" : 5976,
            "byteOffset" : 56416
        },
        {
            "buffer" : 0,
            "byteLength" : 28148,
            "byteOffset" : 62392
        },
        {
            "buffer" : 0,
            "byteLength" : 5016,
            "byteOffset" : 90540
        },
        {
            "buffer" : 0,
            "byteLength" : 5016,
            "byteOffset" : 95556
        },
        {
            "buffer" : 0,
            "byteLength" : 3344,
            "byteOffset" : 100572
        },
        {
            "buffer" : 0,
            "byteLength" : 3384,
            "byteOffset" : 103916
        },
        {
            "buffer" : 0,
            "byteLength" : 10484,
            "byteOffset" : 107300
        },
        {
            "buffer" : 0,
            "byteLength" : 144,
            "byteOffset" : 117784
        },
        {
            "buffer" : 0,
            "byteLength" : 144,
            "byteOffset" : 117928
        },
        {
            "buffer" : 0,
            "byteLength" : 96,
            "byteOffset" : 118072
        },
        {
            "buffer" : 0,
            "byteLength" : 60,
            "byteOffset" : 118168
        },
        {
            "buffer" : 0,
            "byteLength" : 104,
            "byteOffset" : 118228
        },
        {
            "buffer" : 0,
            "byteLength" : 1668,
            "byteOffset" : 118332
        },
        {
            "buffer" : 0,
            "byteLength" : 1668,
            "byteOffset" : 120000
        },
        {
            "buffer" : 0,
            "byteLength" : 1112,
            "byteOffset" : 121668
        },
        {
            "buffer" : 0,
            "byteLength" : 1260,
            "byteOffset" : 122780
        },
        {
            "buffer" : 0,
            "byteLength" : 1338,
            "byteOffset" : 124040
        }
    ],
    "samplers" : [
        {
            "magFilter" : 9729,
            "minFilter" : 9986
        }
    ],
    "buffers" : [
        {
            "byteLength" : 125380,
            "uri" : "data:application/octet-stream;base64,"
        }
    ]
}
