{
    "asset" : {
        "generator" : "Khronos glTF Blender I/O v1.4.40",
        "version" : "2.0"
    },
    "scene" : 0,
    "scenes" : [
        {
            "name" : "Scene",
            "nodes" : [
                0,
                1,
                2,
                3,
                4
            ]
        }
    ],
    "nodes" : [
        {
            "mesh" : 0,
            "name" : "seo_mdl_0"
        },
        {
            "mesh" : 1,
            "name" : "seo_mdl_1"
        },
        {
            "mesh" : 2,
            "name" : "seo_mdl_2"
        },
        {
            "mesh" : 3,
            "name" : "seo_mdl_3"
        },
        {
            "mesh" : 4,
            "name" : "seo_mdl_4"
        }
    ],
    "materials" : [
        {
            "doubleSided" : true,
            "name" : "acc.002",
            "pbrMetallicRoughness" : {
                "baseColorTexture" : {
                    "index" : 0,
                    "texCoord" : 0
                },
                "metallicFactor" : 0,
                "roughnessFactor" : 0.5
            }
        },
        {
            "doubleSided" : true,
            "name" : "cloth.003",
            "pbrMetallicRoughness" : {
                "baseColorTexture" : {
                    "index" : 1,
                    "texCoord" : 0
                },
                "metallicFactor" : 0,
                "roughnessFactor" : 0.5
            }
        },
        {
            "doubleSided" : true,
            "name" : "b0.002",
            "pbrMetallicRoughness" : {
                "baseColorTexture" : {
                    "index" : 2,
                    "texCoord" : 0
                },
                "metallicFactor" : 0,
                "roughnessFactor" : 0.5
            }
        },
        {
            "doubleSided" : true,
            "name" : "m.002",
            "pbrMetallicRoughness" : {
                "baseColorTexture" : {
                    "index" : 3,
                    "texCoord" : 0
                },
                "metallicFactor" : 0,
                "roughnessFactor" : 0.5
            }
        },
        {
            "doubleSided" : true,
            "name" : "e.003",
            "pbrMetallicRoughness" : {
                "baseColorTexture" : {
                    "index" : 4,
                    "texCoord" : 0
                },
                "metallicFactor" : 0,
                "roughnessFactor" : 0.5
            }
        }
    ],
    "meshes" : [
        {
            "name" : "seo_mdl_0.001",
            "primitives" : [
                {
                    "attributes" : {
                        "POSITION" : 0,
                        "NORMAL" : 1,
                        "TEXCOORD_0" : 2
                    },
                    "indices" : 3,
                    "material" : 0
                }
            ]
        },
        {
            "name" : "seo_mdl_1.001",
            "primitives" : [
                {
                    "attributes" : {
                        "POSITION" : 4,
                        "NORMAL" : 5,
                        "TEXCOORD_0" : 6
                    },
                    "indices" : 7,
                    "material" : 1
                }
            ]
        },
        {
            "name" : "seo_mdl_2.001",
            "primitives" : [
                {
                    "attributes" : {
                        "POSITION" : 8,
                        "NORMAL" : 9,
                        "TEXCOORD_0" : 10
                    },
                    "indices" : 11,
                    "material" : 2
                }
            ]
        },
        {
            "name" : "seo_mdl_3.001",
            "primitives" : [
                {
                    "attributes" : {
                        "POSITION" : 12,
                        "NORMAL" : 13,
                        "TEXCOORD_0" : 14
                    },
                    "indices" : 15,
                    "material" : 3
                }
            ]
        },
        {
            "name" : "seo_mdl_4.001",
            "primitives" : [
                {
                    "attributes" : {
                        "POSITION" : 16,
                        "NORMAL" : 17,
                        "TEXCOORD_0" : 18
                    },
                    "indices" : 19,
                    "material" : 4
                }
            ]
        }
    ],
    "textures" : [
        {
            "sampler" : 0,
            "source" : 0
        },
        {
            "sampler" : 0,
            "source" : 0
        },
        {
            "sampler" : 0,
            "source" : 1
        },
        {
            "sampler" : 0,
            "source" : 2
        },
        {
            "sampler" : 0,
            "source" : 3
        }
    ],
    "images" : [
        {
            "bufferView" : 4,
            "mimeType" : "image/png",
            "name" : "cloth"
        },
        {
            "bufferView" : 13,
            "mimeType" : "image/png",
            "name" : "b0"
        },
        {
            "bufferView" : 18,
            "mimeType" : "image/png",
            "name" : "m.0"
        },
        {
            "bufferView" : 23,
            "mimeType" : "image/png",
            "name" : "e.0"
        }
    ],
    "accessors" : [
        {
            "bufferView" : 0,
            "componentType" : 5126,
            "count" : 171,
            "max" : [
                0.031679000705480576,
                0.02757999859750271,
                -0.09030900150537491
            ],
            "min" : [
                -0.031679000705480576,
                -0.03125099837779999,
                -0.13328999280929565
            ],
            "type" : "VEC3"
        },
        {
            "bufferView" : 1,
            "componentType" : 5126,
            "count" : 171,
            "type" : "VEC3"
        },
        {
            "bufferView" : 2,
            "componentType" : 5126,
            "count" : 171,
            "type" : "VEC2"
        },
        {
            "bufferView" : 3,
            "componentType" : 5123,
            "count" : 726,
            "type" : "SCALAR"
        },
        {
            "bufferView" : 5,
            "componentType" : 5126,
            "count" : 662,
            "max" : [
                0.051169998943805695,
                0.029898999258875847,
                1.4999999621068127e-05
            ],
            "min" : [
                -0.051169998943805695,
                -0.046817000955343246,
                -0.09918099641799927
            ],
            "type" : "VEC3"
        },
        {
            "bufferView" : 6,
            "componentType" : 5126,
            "count" : 662,
            "type" : "VEC3"
        },
        {
            "bufferView" : 7,
            "componentType" : 5126,
            "count" : 662,
            "type" : "VEC2"
        },
        {
            "bufferView" : 8,
            "componentType" : 5123,
            "count" : 2988,
            "type" : "SCALAR"
        },
        {
            "bufferView" : 9,
            "componentType" : 5126,
            "count" : 417,
            "max" : [
                0.04220899939537048,
                0.04002600163221359,
                -0.060559000819921494
            ],
            "min" : [
                -0.04220899939537048,
                -0.03125099837779999,
                -0.12199900299310684
            ],
            "type" : "VEC3"
        },
        {
            "bufferView" : 10,
            "componentType" : 5126,
            "count" : 417,
            "type" : "VEC3"
        },
        {
            "bufferView" : 11,
            "componentType" : 5126,
            "count" : 417,
            "type" : "VEC2"
        },
        {
            "bufferView" : 12,
            "componentType" : 5123,
            "count" : 1692,
            "type" : "SCALAR"
        },
        {
            "bufferView" : 14,
            "componentType" : 5126,
            "count" : 12,
            "max" : [
                0.01403099950402975,
                0.04728100076317787,
                -0.06827899813652039
            ],
            "min" : [
                -0.01403099950402975,
                0.03804599866271019,
                -0.0828540027141571
            ],
            "type" : "VEC3"
        },
        {
            "bufferView" : 15,
            "componentType" : 5126,
            "count" : 12,
            "type" : "VEC3"
        },
        {
            "bufferView" : 16,
            "componentType" : 5126,
            "count" : 12,
            "type" : "VEC2"
        },
        {
            "bufferView" : 17,
            "componentType" : 5123,
            "count" : 30,
            "type" : "SCALAR"
        },
        {
            "bufferView" : 19,
            "componentType" : 5126,
            "count" : 139,
            "max" : [
                0.03405999764800072,
                0.028730999678373337,
                -0.07349599897861481
            ],
            "min" : [
                -0.03405899927020073,
                -0.03125099837779999,
                -0.10591199994087219
            ],
            "type" : "VEC3"
        },
        {
            "bufferView" : 20,
            "componentType" : 5126,
            "count" : 139,
            "type" : "VEC3"
        },
        {
            "bufferView" : 21,
            "componentType" : 5126,
            "count" : 139,
            "type" : "VEC2"
        },
        {
            "bufferView" : 22,
            "componentType" : 5123,
            "count" : 630,
            "type" : "SCALAR"
        }
    ],
    "bufferViews" : [
        {
            "buffer" : 0,
            "byteLength" : 2052,
            "byteOffset" : 0
        },
        {
            "buffer" : 0,
            "byteLength" : 2052,
            "byteOffset" : 2052
        },
        {
            "buffer" : 0,
            "byteLength" : 1368,
            "byteOffset" : 4104
        },
        {
            "buffer" : 0,
            "byteLength" : 1452,
            "byteOffset" : 5472
        },
        {
            "buffer" : 0,
            "byteLength" : 27019,
            "byteOffset" : 6924
        },
        {
            "buffer" : 0,
            "byteLength" : 7944,
            "byteOffset" : 33944
        },
        {
            "buffer" : 0,
            "byteLength" : 7944,
            "byteOffset" : 41888
        },
        {
            "buffer" : 0,
            "byteLength" : 5296,
            "byteOffset" : 49832
        },
        {
            "buffer" : 0,
            "byteLength" : 5976,
            "byteOffset" : 55128
        },
        {
            "buffer" : 0,
            "byteLength" : 5004,
            "byteOffset" : 61104
        },
        {
            "buffer" : 0,
            "byteLength" : 5004,
            "byteOffset" : 66108
        },
        {
            "buffer" : 0,
            "byteLength" : 3336,
            "byteOffset" : 71112
        },
        {
            "buffer" : 0,
            "byteLength" : 3384,
            "byteOffset" : 74448
        },
        {
            "buffer" : 0,
            "byteLength" : 9995,
            "byteOffset" : 77832
        },
        {
            "buffer" : 0,
            "byteLength" : 144,
            "byteOffset" : 87828
        },
        {
            "buffer" : 0,
            "byteLength" : 144,
            "byteOffset" : 87972
        },
        {
            "buffer" : 0,
            "byteLength" : 96,
            "byteOffset" : 88116
        },
        {
            "buffer" : 0,
            "byteLength" : 60,
            "byteOffset" : 88212
        },
        {
            "buffer" : 0,
            "byteLength" : 154,
            "byteOffset" : 88272
        },
        {
            "buffer" : 0,
            "byteLength" : 1668,
            "byteOffset" : 88428
        },
        {
            "buffer" : 0,
            "byteLength" : 1668,
            "byteOffset" : 90096
        },
        {
            "buffer" : 0,
            "byteLength" : 1112,
            "byteOffset" : 91764
        },
        {
            "buffer" : 0,
            "byteLength" : 1260,
            "byteOffset" : 92876
        },
        {
            "buffer" : 0,
            "byteLength" : 1661,
            "byteOffset" : 94136
        }
    ],
    "samplers" : [
        {
            "magFilter" : 9729,
            "minFilter" : 9986
        }
    ],
    "buffers" : [
        {
            "byteLength" : 95800,
            "uri" : "data:application/octet-stream;base64,"
        }
    ]
}
