{
    "asset" : {
        "generator" : "Khronos glTF Blender I/O v1.4.40",
        "version" : "2.0"
    },
    "scene" : 0,
    "scenes" : [
        {
            "name" : "Scene",
            "nodes" : [
                0,
                1,
                2,
                3
            ]
        }
    ],
    "nodes" : [
        {
            "mesh" : 0,
            "name" : "mesh_0_"
        },
        {
            "mesh" : 1,
            "name" : "mesh_1_"
        },
        {
            "mesh" : 2,
            "name" : "mesh_2_"
        },
        {
            "mesh" : 3,
            "name" : "mesh_3_"
        }
    ],
    "materials" : [
        {
            "doubleSided" : true,
            "name" : "e",
            "pbrMetallicRoughness" : {
                "baseColorTexture" : {
                    "index" : 0,
                    "texCoord" : 0
                },
                "metallicFactor" : 0,
                "roughnessFactor" : 0.5
            }
        },
        {
            "doubleSided" : true,
            "name" : "b",
            "pbrMetallicRoughness" : {
                "baseColorTexture" : {
                    "index" : 1,
                    "texCoord" : 0
                },
                "metallicFactor" : 0,
                "roughnessFactor" : 0.5
            }
        },
        {
            "doubleSided" : true,
            "name" : "m",
            "pbrMetallicRoughness" : {
                "baseColorTexture" : {
                    "index" : 2,
                    "texCoord" : 0
                },
                "metallicFactor" : 0,
                "roughnessFactor" : 0.5
            }
        },
        {
            "doubleSided" : true,
            "name" : "cloth",
            "pbrMetallicRoughness" : {
                "baseColorTexture" : {
                    "index" : 3,
                    "texCoord" : 0
                },
                "metallicFactor" : 0,
                "roughnessFactor" : 0.5
            }
        }
    ],
    "meshes" : [
        {
            "name" : "mesh_0_",
            "primitives" : [
                {
                    "attributes" : {
                        "POSITION" : 0,
                        "NORMAL" : 1,
                        "TEXCOORD_0" : 2
                    },
                    "indices" : 3,
                    "material" : 0
                }
            ]
        },
        {
            "name" : "mesh_1_",
            "primitives" : [
                {
                    "attributes" : {
                        "POSITION" : 4,
                        "NORMAL" : 5,
                        "TEXCOORD_0" : 6
                    },
                    "indices" : 7,
                    "material" : 1
                }
            ]
        },
        {
            "name" : "mesh_2_",
            "primitives" : [
                {
                    "attributes" : {
                        "POSITION" : 8,
                        "NORMAL" : 9,
                        "TEXCOORD_0" : 10
                    },
                    "indices" : 11,
                    "material" : 2
                }
            ]
        },
        {
            "name" : "mesh_3_",
            "primitives" : [
                {
                    "attributes" : {
                        "POSITION" : 12,
                        "NORMAL" : 13,
                        "TEXCOORD_0" : 14
                    },
                    "indices" : 15,
                    "material" : 3
                }
            ]
        }
    ],
    "textures" : [
        {
            "sampler" : 0,
            "source" : 0
        },
        {
            "sampler" : 0,
            "source" : 1
        },
        {
            "sampler" : 0,
            "source" : 2
        },
        {
            "sampler" : 0,
            "source" : 3
        }
    ],
    "images" : [
        {
            "bufferView" : 4,
            "mimeType" : "image/png",
            "name" : "e.0"
        },
        {
            "bufferView" : 9,
            "mimeType" : "image/png",
            "name" : "b0"
        },
        {
            "bufferView" : 14,
            "mimeType" : "image/png",
            "name" : "m.0"
        },
        {
            "bufferView" : 19,
            "mimeType" : "image/png",
            "name" : "cloth"
        }
    ],
    "accessors" : [
        {
            "bufferView" : 0,
            "componentType" : 5126,
            "count" : 18,
            "max" : [
                8.896329879760742,
                8.299099922180176,
                -34.01900100708008
            ],
            "min" : [
                -8.896470069885254,
                2.4609298706054688,
                -41.36429977416992
            ],
            "type" : "VEC3"
        },
        {
            "bufferView" : 1,
            "componentType" : 5126,
            "count" : 18,
            "type" : "VEC3"
        },
        {
            "bufferView" : 2,
            "componentType" : 5126,
            "count" : 18,
            "type" : "VEC2"
        },
        {
            "bufferView" : 3,
            "componentType" : 5123,
            "count" : 54,
            "type" : "SCALAR"
        },
        {
            "bufferView" : 5,
            "componentType" : 5126,
            "count" : 382,
            "max" : [
                25.19849967956543,
                18.56410026550293,
                -16.809598922729492
            ],
            "min" : [
                -35.2598991394043,
                -10.918499946594238,
                -46.31340026855469
            ],
            "type" : "VEC3"
        },
        {
            "bufferView" : 6,
            "componentType" : 5126,
            "count" : 382,
            "type" : "VEC3"
        },
        {
            "bufferView" : 7,
            "componentType" : 5126,
            "count" : 382,
            "type" : "VEC2"
        },
        {
            "bufferView" : 8,
            "componentType" : 5123,
            "count" : 1131,
            "type" : "SCALAR"
        },
        {
            "bufferView" : 10,
            "componentType" : 5126,
            "count" : 19,
            "max" : [
                8.746939659118652,
                10.132299423217773,
                -25.822898864746094
            ],
            "min" : [
                -8.74701976776123,
                6.154449939727783,
                -34.31549835205078
            ],
            "type" : "VEC3"
        },
        {
            "bufferView" : 11,
            "componentType" : 5126,
            "count" : 19,
            "type" : "VEC3"
        },
        {
            "bufferView" : 12,
            "componentType" : 5126,
            "count" : 19,
            "type" : "VEC2"
        },
        {
            "bufferView" : 13,
            "componentType" : 5123,
            "count" : 66,
            "type" : "SCALAR"
        },
        {
            "bufferView" : 15,
            "componentType" : 5126,
            "count" : 271,
            "max" : [
                14.035599708557129,
                11.950699806213379,
                0.014142000116407871
            ],
            "min" : [
                -14.035699844360352,
                -13.061800003051758,
                -25.950498580932617
            ],
            "type" : "VEC3"
        },
        {
            "bufferView" : 16,
            "componentType" : 5126,
            "count" : 271,
            "type" : "VEC3"
        },
        {
            "bufferView" : 17,
            "componentType" : 5126,
            "count" : 271,
            "type" : "VEC2"
        },
        {
            "bufferView" : 18,
            "componentType" : 5123,
            "count" : 963,
            "type" : "SCALAR"
        }
    ],
    "bufferViews" : [
        {
            "buffer" : 0,
            "byteLength" : 216,
            "byteOffset" : 0
        },
        {
            "buffer" : 0,
            "byteLength" : 216,
            "byteOffset" : 216
        },
        {
            "buffer" : 0,
            "byteLength" : 144,
            "byteOffset" : 432
        },
        {
            "buffer" : 0,
            "byteLength" : 108,
            "byteOffset" : 576
        },
        {
            "buffer" : 0,
            "byteLength" : 1114,
            "byteOffset" : 684
        },
        {
            "buffer" : 0,
            "byteLength" : 4584,
            "byteOffset" : 1800
        },
        {
            "buffer" : 0,
            "byteLength" : 4584,
            "byteOffset" : 6384
        },
        {
            "buffer" : 0,
            "byteLength" : 3056,
            "byteOffset" : 10968
        },
        {
            "buffer" : 0,
            "byteLength" : 2262,
            "byteOffset" : 14024
        },
        {
            "buffer" : 0,
            "byteLength" : 2428,
            "byteOffset" : 16288
        },
        {
            "buffer" : 0,
            "byteLength" : 228,
            "byteOffset" : 18716
        },
        {
            "buffer" : 0,
            "byteLength" : 228,
            "byteOffset" : 18944
        },
        {
            "buffer" : 0,
            "byteLength" : 152,
            "byteOffset" : 19172
        },
        {
            "buffer" : 0,
            "byteLength" : 132,
            "byteOffset" : 19324
        },
        {
            "buffer" : 0,
            "byteLength" : 179,
            "byteOffset" : 19456
        },
        {
            "buffer" : 0,
            "byteLength" : 3252,
            "byteOffset" : 19636
        },
        {
            "buffer" : 0,
            "byteLength" : 3252,
            "byteOffset" : 22888
        },
        {
            "buffer" : 0,
            "byteLength" : 2168,
            "byteOffset" : 26140
        },
        {
            "buffer" : 0,
            "byteLength" : 1926,
            "byteOffset" : 28308
        },
        {
            "buffer" : 0,
            "byteLength" : 2280,
            "byteOffset" : 30236
        }
    ],
    "samplers" : [
        {
            "magFilter" : 9729,
            "minFilter" : 9986
        }
    ],
    "buffers" : [
        {
            "byteLength" : 32516,
            "uri" : "data:application/octet-stream;base64,"
        }
    ]
}
