{
    "asset" : {
        "generator" : "Khronos glTF Blender I/O v1.4.40",
        "version" : "2.0"
    },
    "scene" : 0,
    "scenes" : [
        {
            "name" : "Scene",
            "nodes" : [
                0,
                1,
                2
            ]
        }
    ],
    "nodes" : [
        {
            "mesh" : 0,
            "name" : "fob_mdl_0"
        },
        {
            "mesh" : 1,
            "name" : "fob_mdl_1"
        },
        {
            "mesh" : 2,
            "name" : "fob_mdl_2"
        }
    ],
    "materials" : [
        {
            "doubleSided" : true,
            "name" : "b.001",
            "pbrMetallicRoughness" : {
                "baseColorTexture" : {
                    "index" : 0,
                    "texCoord" : 0
                },
                "metallicFactor" : 0,
                "roughnessFactor" : 0.5
            }
        },
        {
            "doubleSided" : true,
            "name" : "cloth.004",
            "pbrMetallicRoughness" : {
                "baseColorTexture" : {
                    "index" : 1,
                    "texCoord" : 0
                },
                "metallicFactor" : 0,
                "roughnessFactor" : 0.5
            }
        },
        {
            "doubleSided" : true,
            "name" : "e.004",
            "pbrMetallicRoughness" : {
                "baseColorTexture" : {
                    "index" : 2,
                    "texCoord" : 0
                },
                "metallicFactor" : 0,
                "roughnessFactor" : 0.5
            }
        }
    ],
    "meshes" : [
        {
            "name" : "fob_mdl_0",
            "primitives" : [
                {
                    "attributes" : {
                        "POSITION" : 0,
                        "NORMAL" : 1,
                        "TEXCOORD_0" : 2
                    },
                    "indices" : 3,
                    "material" : 0
                }
            ]
        },
        {
            "name" : "fob_mdl_1",
            "primitives" : [
                {
                    "attributes" : {
                        "POSITION" : 4,
                        "NORMAL" : 5,
                        "TEXCOORD_0" : 6
                    },
                    "indices" : 7,
                    "material" : 1
                }
            ]
        },
        {
            "name" : "fob_mdl_2",
            "primitives" : [
                {
                    "attributes" : {
                        "POSITION" : 8,
                        "NORMAL" : 9,
                        "TEXCOORD_0" : 10
                    },
                    "indices" : 11,
                    "material" : 2
                }
            ]
        }
    ],
    "textures" : [
        {
            "sampler" : 0,
            "source" : 0
        },
        {
            "sampler" : 0,
            "source" : 1
        },
        {
            "sampler" : 0,
            "source" : 2
        }
    ],
    "images" : [
        {
            "bufferView" : 4,
            "mimeType" : "image/png",
            "name" : "b0"
        },
        {
            "bufferView" : 9,
            "mimeType" : "image/png",
            "name" : "cloth"
        },
        {
            "bufferView" : 14,
            "mimeType" : "image/png",
            "name" : "e.0"
        }
    ],
    "accessors" : [
        {
            "bufferView" : 0,
            "componentType" : 5126,
            "count" : 647,
            "max" : [
                0.04698500037193298,
                0.04500799998641014,
                -3.999999989900971e-06
            ],
            "min" : [
                -0.04698500037193298,
                -0.0732870027422905,
                -0.1594650000333786
            ],
            "type" : "VEC3"
        },
        {
            "bufferView" : 1,
            "componentType" : 5126,
            "count" : 647,
            "type" : "VEC3"
        },
        {
            "bufferView" : 2,
            "componentType" : 5126,
            "count" : 647,
            "type" : "VEC2"
        },
        {
            "bufferView" : 3,
            "componentType" : 5123,
            "count" : 2838,
            "type" : "SCALAR"
        },
        {
            "bufferView" : 5,
            "componentType" : 5126,
            "count" : 685,
            "max" : [
                0.035930998623371124,
                0.02176399901509285,
                -0.006684000138193369
            ],
            "min" : [
                -0.03592899814248085,
                -0.022525999695062637,
                -0.0694819986820221
            ],
            "type" : "VEC3"
        },
        {
            "bufferView" : 6,
            "componentType" : 5126,
            "count" : 685,
            "type" : "VEC3"
        },
        {
            "bufferView" : 7,
            "componentType" : 5126,
            "count" : 685,
            "type" : "VEC2"
        },
        {
            "bufferView" : 8,
            "componentType" : 5123,
            "count" : 2856,
            "type" : "SCALAR"
        },
        {
            "bufferView" : 10,
            "componentType" : 5126,
            "count" : 42,
            "max" : [
                0.028379999101161957,
                0.02578900009393692,
                -0.08505299687385559
            ],
            "min" : [
                -0.028379999101161957,
                0.006976999808102846,
                -0.12153299897909164
            ],
            "type" : "VEC3"
        },
        {
            "bufferView" : 11,
            "componentType" : 5126,
            "count" : 42,
            "type" : "VEC3"
        },
        {
            "bufferView" : 12,
            "componentType" : 5126,
            "count" : 42,
            "type" : "VEC2"
        },
        {
            "bufferView" : 13,
            "componentType" : 5123,
            "count" : 174,
            "type" : "SCALAR"
        }
    ],
    "bufferViews" : [
        {
            "buffer" : 0,
            "byteLength" : 7764,
            "byteOffset" : 0
        },
        {
            "buffer" : 0,
            "byteLength" : 7764,
            "byteOffset" : 7764
        },
        {
            "buffer" : 0,
            "byteLength" : 5176,
            "byteOffset" : 15528
        },
        {
            "buffer" : 0,
            "byteLength" : 5676,
            "byteOffset" : 20704
        },
        {
            "buffer" : 0,
            "byteLength" : 15261,
            "byteOffset" : 26380
        },
        {
            "buffer" : 0,
            "byteLength" : 8220,
            "byteOffset" : 41644
        },
        {
            "buffer" : 0,
            "byteLength" : 8220,
            "byteOffset" : 49864
        },
        {
            "buffer" : 0,
            "byteLength" : 5480,
            "byteOffset" : 58084
        },
        {
            "buffer" : 0,
            "byteLength" : 5712,
            "byteOffset" : 63564
        },
        {
            "buffer" : 0,
            "byteLength" : 25448,
            "byteOffset" : 69276
        },
        {
            "buffer" : 0,
            "byteLength" : 504,
            "byteOffset" : 94724
        },
        {
            "buffer" : 0,
            "byteLength" : 504,
            "byteOffset" : 95228
        },
        {
            "buffer" : 0,
            "byteLength" : 336,
            "byteOffset" : 95732
        },
        {
            "buffer" : 0,
            "byteLength" : 348,
            "byteOffset" : 96068
        },
        {
            "buffer" : 0,
            "byteLength" : 1805,
            "byteOffset" : 96416
        }
    ],
    "samplers" : [
        {
            "magFilter" : 9729,
            "minFilter" : 9986
        }
    ],
    "buffers" : [
        {
            "byteLength" : 98224,
            "uri" : "data:application/octet-stream;base64,"
        }
    ]
}
