{
    "asset" : {
        "generator" : "Khronos glTF Blender I/O v1.4.40",
        "version" : "2.0"
    },
    "scene" : 0,
    "scenes" : [
        {
            "name" : "Scene",
            "nodes" : [
                0,
                1
            ]
        }
    ],
    "nodes" : [
        {
            "name" : "EnvironmentAmbientLight",
            "scale" : [
                0.02539999969303608,
                0.02539999969303608,
                0.02539999969303608
            ]
        },
        {
            "mesh" : 0,
            "name" : "Body__mBody"
        }
    ],
    "materials" : [
        {
            "doubleSided" : true,
            "name" : "mBody",
            "pbrMetallicRoughness" : {
                "baseColorTexture" : {
                    "index" : 0,
                    "texCoord" : 0
                },
                "metallicFactor" : 0,
                "roughnessFactor" : 0.5
            }
        }
    ],
    "meshes" : [
        {
            "name" : "Body__mBody",
            "primitives" : [
                {
                    "attributes" : {
                        "POSITION" : 0,
                        "NORMAL" : 1,
                        "TEXCOORD_0" : 2,
                        "COLOR_0" : 3
                    },
                    "indices" : 4,
                    "material" : 0
                }
            ]
        }
    ],
    "textures" : [
        {
            "sampler" : 0,
            "source" : 0
        }
    ],
    "images" : [
        {
            "bufferView" : 5,
            "mimeType" : "image/png",
            "name" : "mBody_Alb"
        }
    ],
    "accessors" : [
        {
            "bufferView" : 0,
            "componentType" : 5126,
            "count" : 121,
            "max" : [
                1.7066750526428223,
                3.0474698543548584,
                1.3418560028076172
            ],
            "min" : [
                -1.5664629936218262,
                0.05071365833282471,
                -1.812072992324829
            ],
            "type" : "VEC3"
        },
        {
            "bufferView" : 1,
            "componentType" : 5126,
            "count" : 121,
            "type" : "VEC3"
        },
        {
            "bufferView" : 2,
            "componentType" : 5126,
            "count" : 121,
            "type" : "VEC2"
        },
        {
            "bufferView" : 3,
            "componentType" : 5123,
            "count" : 121,
            "normalized" : true,
            "type" : "VEC4"
        },
        {
            "bufferView" : 4,
            "componentType" : 5123,
            "count" : 612,
            "type" : "SCALAR"
        }
    ],
    "bufferViews" : [
        {
            "buffer" : 0,
            "byteLength" : 1452,
            "byteOffset" : 0
        },
        {
            "buffer" : 0,
            "byteLength" : 1452,
            "byteOffset" : 1452
        },
        {
            "buffer" : 0,
            "byteLength" : 968,
            "byteOffset" : 2904
        },
        {
            "buffer" : 0,
            "byteLength" : 968,
            "byteOffset" : 3872
        },
        {
            "buffer" : 0,
            "byteLength" : 1224,
            "byteOffset" : 4840
        },
        {
            "buffer" : 0,
            "byteLength" : 22474,
            "byteOffset" : 6064
        }
    ],
    "samplers" : [
        {
            "magFilter" : 9729,
            "minFilter" : 9986
        }
    ],
    "buffers" : [
        {
            "byteLength" : 28540,
            "uri" : "data:application/octet-stream;base64,"
        }
    ]
}
