{
    "asset" : {
        "generator" : "Khronos glTF Blender I/O v1.4.40",
        "version" : "2.0"
    },
    "scene" : 0,
    "scenes" : [
        {
            "name" : "Scene",
            "nodes" : [
                0
            ]
        }
    ],
    "nodes" : [
        {
            "mesh" : 0,
            "name" : "_001_fg_treeA_4"
        }
    ],
    "materials" : [
        {
            "doubleSided" : true,
            "name" : "m_treeA",
            "pbrMetallicRoughness" : {
                "baseColorTexture" : {
                    "index" : 0,
                    "texCoord" : 0
                },
                "metallicFactor" : 0,
                "roughnessFactor" : 0.5
            }
        }
    ],
    "meshes" : [
        {
            "name" : "_001_fg_treeA_4",
            "primitives" : [
                {
                    "attributes" : {
                        "POSITION" : 0,
                        "NORMAL" : 1,
                        "TEXCOORD_0" : 2
                    },
                    "indices" : 3,
                    "material" : 0
                }
            ]
        }
    ],
    "textures" : [
        {
            "sampler" : 0,
            "source" : 0
        }
    ],
    "images" : [
        {
            "bufferView" : 4,
            "mimeType" : "image/png",
            "name" : "treeA #111"
        }
    ],
    "accessors" : [
        {
            "bufferView" : 0,
            "componentType" : 5126,
            "count" : 2910,
            "max" : [
                0.10996100306510925,
                0.05176100134849548,
                0.005036000162363052
            ],
            "min" : [
                -0.10862299799919128,
                -0.09078100323677063,
                -0.2520639896392822
            ],
            "type" : "VEC3"
        },
        {
            "bufferView" : 1,
            "componentType" : 5126,
            "count" : 2910,
            "type" : "VEC3"
        },
        {
            "bufferView" : 2,
            "componentType" : 5126,
            "count" : 2910,
            "type" : "VEC2"
        },
        {
            "bufferView" : 3,
            "componentType" : 5123,
            "count" : 6240,
            "type" : "SCALAR"
        }
    ],
    "bufferViews" : [
        {
            "buffer" : 0,
            "byteLength" : 34920,
            "byteOffset" : 0
        },
        {
            "buffer" : 0,
            "byteLength" : 34920,
            "byteOffset" : 34920
        },
        {
            "buffer" : 0,
            "byteLength" : 23280,
            "byteOffset" : 69840
        },
        {
            "buffer" : 0,
            "byteLength" : 12480,
            "byteOffset" : 93120
        },
        {
            "buffer" : 0,
            "byteLength" : 146921,
            "byteOffset" : 105600
        }
    ],
    "samplers" : [
        {
            "magFilter" : 9729,
            "minFilter" : 9986
        }
    ],
    "buffers" : [
        {
            "byteLength" : 252524,
            "uri" : "data:application/octet-stream;base64,"
        }
    ]
}
