{
    "asset" : {
        "generator" : "Khronos glTF Blender I/O v1.4.40",
        "version" : "2.0"
    },
    "scene" : 0,
    "scenes" : [
        {
            "name" : "Scene",
            "nodes" : [
                0,
                1,
                2,
                3
            ]
        }
    ],
    "nodes" : [
        {
            "mesh" : 0,
            "name" : "_000_fg_treeA_4"
        },
        {
            "mesh" : 1,
            "name" : "_001_fg_treeA_4"
        },
        {
            "mesh" : 2,
            "name" : "_002_sdw_treeA"
        },
        {
            "mesh" : 3,
            "name" : "_003_sdw_treeA"
        }
    ],
    "materials" : [
        {
            "doubleSided" : true,
            "name" : "m_treeA_a",
            "pbrMetallicRoughness" : {
                "baseColorTexture" : {
                    "index" : 0,
                    "texCoord" : 0
                },
                "metallicFactor" : 0,
                "roughnessFactor" : 0.5
            }
        },
        {
            "doubleSided" : true,
            "name" : "m_treeA",
            "pbrMetallicRoughness" : {
                "baseColorTexture" : {
                    "index" : 1,
                    "texCoord" : 0
                },
                "metallicFactor" : 0,
                "roughnessFactor" : 0.5
            }
        },
        {
            "doubleSided" : true,
            "name" : "m_sdw_treeA",
            "pbrMetallicRoughness" : {
                "baseColorTexture" : {
                    "index" : 2,
                    "texCoord" : 0
                },
                "metallicFactor" : 0,
                "roughnessFactor" : 0.5
            }
        }
    ],
    "meshes" : [
        {
            "name" : "_000_fg_treeA_4",
            "primitives" : [
                {
                    "attributes" : {
                        "POSITION" : 0,
                        "NORMAL" : 1,
                        "TEXCOORD_0" : 2
                    },
                    "indices" : 3,
                    "material" : 0
                }
            ]
        },
        {
            "name" : "_001_fg_treeA_4",
            "primitives" : [
                {
                    "attributes" : {
                        "POSITION" : 4,
                        "NORMAL" : 5,
                        "TEXCOORD_0" : 6
                    },
                    "indices" : 7,
                    "material" : 1
                }
            ]
        },
        {
            "name" : "_002_sdw_treeA",
            "primitives" : [
                {
                    "attributes" : {
                        "POSITION" : 8,
                        "NORMAL" : 9,
                        "TEXCOORD_0" : 10
                    },
                    "indices" : 11,
                    "material" : 2
                }
            ]
        },
        {
            "name" : "_003_sdw_treeA",
            "primitives" : [
                {
                    "attributes" : {
                        "POSITION" : 12,
                        "NORMAL" : 13,
                        "TEXCOORD_0" : 14
                    },
                    "indices" : 15,
                    "material" : 2
                }
            ]
        }
    ],
    "textures" : [
        {
            "sampler" : 0,
            "source" : 0
        },
        {
            "sampler" : 0,
            "source" : 1
        },
        {
            "sampler" : 0,
            "source" : 2
        }
    ],
    "images" : [
        {
            "bufferView" : 4,
            "mimeType" : "image/png",
            "name" : "m_treeA_a"
        },
        {
            "bufferView" : 9,
            "mimeType" : "image/png",
            "name" : "m_treeA"
        },
        {
            "bufferView" : 14,
            "mimeType" : "image/png",
            "name" : "shadow_base"
        }
    ],
    "accessors" : [
        {
            "bufferView" : 0,
            "componentType" : 5126,
            "count" : 136,
            "max" : [
                0.11403500288724899,
                0.07067500054836273,
                -0.10044900327920914
            ],
            "min" : [
                -0.12335299700498581,
                -0.07026699930429459,
                -0.25942498445510864
            ],
            "type" : "VEC3"
        },
        {
            "bufferView" : 1,
            "componentType" : 5126,
            "count" : 136,
            "type" : "VEC3"
        },
        {
            "bufferView" : 2,
            "componentType" : 5126,
            "count" : 136,
            "type" : "VEC2"
        },
        {
            "bufferView" : 3,
            "componentType" : 5123,
            "count" : 378,
            "type" : "SCALAR"
        },
        {
            "bufferView" : 5,
            "componentType" : 5126,
            "count" : 2910,
            "max" : [
                0.10996100306510925,
                0.05176100134849548,
                0.005036000162363052
            ],
            "min" : [
                -0.10862299799919128,
                -0.09078100323677063,
                -0.2520639896392822
            ],
            "type" : "VEC3"
        },
        {
            "bufferView" : 6,
            "componentType" : 5126,
            "count" : 2910,
            "type" : "VEC3"
        },
        {
            "bufferView" : 7,
            "componentType" : 5126,
            "count" : 2910,
            "type" : "VEC2"
        },
        {
            "bufferView" : 8,
            "componentType" : 5123,
            "count" : 6240,
            "type" : "SCALAR"
        },
        {
            "bufferView" : 10,
            "componentType" : 5126,
            "count" : 16,
            "max" : [
                0.10000000149011612,
                0.09800000488758087,
                -0.0020000000949949026
            ],
            "min" : [
                -0.10000000149011612,
                -0.10200000554323196,
                -0.0020000000949949026
            ],
            "type" : "VEC3"
        },
        {
            "bufferView" : 11,
            "componentType" : 5126,
            "count" : 16,
            "type" : "VEC3"
        },
        {
            "bufferView" : 12,
            "componentType" : 5126,
            "count" : 16,
            "type" : "VEC2"
        },
        {
            "bufferView" : 13,
            "componentType" : 5123,
            "count" : 36,
            "type" : "SCALAR"
        },
        {
            "bufferView" : 15,
            "componentType" : 5126,
            "count" : 16,
            "max" : [
                0.10000000149011612,
                0.09800000488758087,
                -0.0010000000474974513
            ],
            "min" : [
                -0.10000000149011612,
                -0.10200000554323196,
                -0.0010000000474974513
            ],
            "type" : "VEC3"
        },
        {
            "bufferView" : 16,
            "componentType" : 5126,
            "count" : 16,
            "type" : "VEC3"
        },
        {
            "bufferView" : 17,
            "componentType" : 5126,
            "count" : 16,
            "type" : "VEC2"
        },
        {
            "bufferView" : 18,
            "componentType" : 5123,
            "count" : 36,
            "type" : "SCALAR"
        }
    ],
    "bufferViews" : [
        {
            "buffer" : 0,
            "byteLength" : 1632,
            "byteOffset" : 0
        },
        {
            "buffer" : 0,
            "byteLength" : 1632,
            "byteOffset" : 1632
        },
        {
            "buffer" : 0,
            "byteLength" : 1088,
            "byteOffset" : 3264
        },
        {
            "buffer" : 0,
            "byteLength" : 756,
            "byteOffset" : 4352
        },
        {
            "buffer" : 0,
            "byteLength" : 37763,
            "byteOffset" : 5108
        },
        {
            "buffer" : 0,
            "byteLength" : 34920,
            "byteOffset" : 42872
        },
        {
            "buffer" : 0,
            "byteLength" : 34920,
            "byteOffset" : 77792
        },
        {
            "buffer" : 0,
            "byteLength" : 23280,
            "byteOffset" : 112712
        },
        {
            "buffer" : 0,
            "byteLength" : 12480,
            "byteOffset" : 135992
        },
        {
            "buffer" : 0,
            "byteLength" : 131790,
            "byteOffset" : 148472
        },
        {
            "buffer" : 0,
            "byteLength" : 192,
            "byteOffset" : 280264
        },
        {
            "buffer" : 0,
            "byteLength" : 192,
            "byteOffset" : 280456
        },
        {
            "buffer" : 0,
            "byteLength" : 128,
            "byteOffset" : 280648
        },
        {
            "buffer" : 0,
            "byteLength" : 72,
            "byteOffset" : 280776
        },
        {
            "buffer" : 0,
            "byteLength" : 124,
            "byteOffset" : 280848
        },
        {
            "buffer" : 0,
            "byteLength" : 192,
            "byteOffset" : 280972
        },
        {
            "buffer" : 0,
            "byteLength" : 192,
            "byteOffset" : 281164
        },
        {
            "buffer" : 0,
            "byteLength" : 128,
            "byteOffset" : 281356
        },
        {
            "buffer" : 0,
            "byteLength" : 72,
            "byteOffset" : 281484
        }
    ],
    "samplers" : [
        {
            "magFilter" : 9729,
            "minFilter" : 9986
        }
    ],
    "buffers" : [
        {
            "byteLength" : 281556,
            "uri" : "data:application/octet-stream;base64,"
        }
    ]
}
