{
    "asset" : {
        "generator" : "Khronos glTF Blender I/O v1.4.40",
        "version" : "2.0"
    },
    "scene" : 0,
    "scenes" : [
        {
            "name" : "Scene",
            "nodes" : [
                0,
                1,
                2,
                3,
                4,
                5
            ]
        }
    ],
    "nodes" : [
        {
            "mesh" : 0,
            "name" : "polygon0"
        },
        {
            "mesh" : 1,
            "name" : "polygon1"
        },
        {
            "mesh" : 2,
            "name" : "polygon2"
        },
        {
            "mesh" : 3,
            "name" : "polygon3"
        },
        {
            "mesh" : 4,
            "name" : "polygon4"
        },
        {
            "mesh" : 5,
            "name" : "polygon5"
        }
    ],
    "materials" : [
        {
            "doubleSided" : true,
            "name" : "head09_hair",
            "pbrMetallicRoughness" : {
                "baseColorTexture" : {
                    "index" : 0,
                    "texCoord" : 0
                },
                "metallicFactor" : 0,
                "roughnessFactor" : 0.5
            }
        },
        {
            "doubleSided" : true,
            "name" : "e.001",
            "pbrMetallicRoughness" : {
                "baseColorTexture" : {
                    "index" : 1,
                    "texCoord" : 0
                },
                "metallicFactor" : 0,
                "roughnessFactor" : 0.5
            }
        },
        {
            "doubleSided" : true,
            "name" : "m.001",
            "pbrMetallicRoughness" : {
                "baseColorTexture" : {
                    "index" : 2,
                    "texCoord" : 0
                },
                "metallicFactor" : 0,
                "roughnessFactor" : 0.5
            }
        },
        {
            "doubleSided" : true,
            "name" : "b1",
            "pbrMetallicRoughness" : {
                "baseColorTexture" : {
                    "index" : 3,
                    "texCoord" : 0
                },
                "metallicFactor" : 0,
                "roughnessFactor" : 0.5
            }
        },
        {
            "doubleSided" : true,
            "name" : "w",
            "pbrMetallicRoughness" : {
                "baseColorTexture" : {
                    "index" : 4,
                    "texCoord" : 0
                },
                "metallicFactor" : 0,
                "roughnessFactor" : 0.5
            }
        },
        {
            "doubleSided" : true,
            "name" : "b0",
            "pbrMetallicRoughness" : {
                "baseColorTexture" : {
                    "index" : 5,
                    "texCoord" : 0
                },
                "metallicFactor" : 0,
                "roughnessFactor" : 0.5
            }
        }
    ],
    "meshes" : [
        {
            "name" : "polygon0",
            "primitives" : [
                {
                    "attributes" : {
                        "POSITION" : 0,
                        "NORMAL" : 1,
                        "TEXCOORD_0" : 2,
                        "COLOR_0" : 3
                    },
                    "indices" : 4,
                    "material" : 0
                }
            ]
        },
        {
            "name" : "polygon1",
            "primitives" : [
                {
                    "attributes" : {
                        "POSITION" : 5,
                        "NORMAL" : 6,
                        "TEXCOORD_0" : 7,
                        "COLOR_0" : 8
                    },
                    "indices" : 9,
                    "material" : 1
                }
            ]
        },
        {
            "name" : "polygon2",
            "primitives" : [
                {
                    "attributes" : {
                        "POSITION" : 10,
                        "NORMAL" : 11,
                        "TEXCOORD_0" : 12,
                        "COLOR_0" : 13
                    },
                    "indices" : 14,
                    "material" : 2
                }
            ]
        },
        {
            "name" : "polygon3",
            "primitives" : [
                {
                    "attributes" : {
                        "POSITION" : 15,
                        "NORMAL" : 16,
                        "TEXCOORD_0" : 17,
                        "COLOR_0" : 18
                    },
                    "indices" : 19,
                    "material" : 3
                }
            ]
        },
        {
            "name" : "polygon4",
            "primitives" : [
                {
                    "attributes" : {
                        "POSITION" : 20,
                        "NORMAL" : 21,
                        "TEXCOORD_0" : 22,
                        "COLOR_0" : 23
                    },
                    "indices" : 24,
                    "material" : 4
                }
            ]
        },
        {
            "name" : "polygon5",
            "primitives" : [
                {
                    "attributes" : {
                        "POSITION" : 25,
                        "NORMAL" : 26,
                        "TEXCOORD_0" : 27,
                        "COLOR_0" : 28
                    },
                    "indices" : 29,
                    "material" : 5
                }
            ]
        }
    ],
    "textures" : [
        {
            "sampler" : 0,
            "source" : 0
        },
        {
            "sampler" : 0,
            "source" : 1
        },
        {
            "sampler" : 0,
            "source" : 2
        },
        {
            "sampler" : 0,
            "source" : 3
        },
        {
            "sampler" : 0,
            "source" : 4
        },
        {
            "sampler" : 0,
            "source" : 5
        }
    ],
    "images" : [
        {
            "bufferView" : 5,
            "mimeType" : "image/png",
            "name" : "hair"
        },
        {
            "bufferView" : 11,
            "mimeType" : "image/png",
            "name" : "e.0"
        },
        {
            "bufferView" : 17,
            "mimeType" : "image/png",
            "name" : "m.0"
        },
        {
            "bufferView" : 23,
            "mimeType" : "image/png",
            "name" : "b1"
        },
        {
            "bufferView" : 29,
            "mimeType" : "image/png",
            "name" : "cloth"
        },
        {
            "bufferView" : 35,
            "mimeType" : "image/png",
            "name" : "b0"
        }
    ],
    "accessors" : [
        {
            "bufferView" : 0,
            "componentType" : 5126,
            "count" : 109,
            "max" : [
                4.349999904632568,
                3.299999952316284,
                -4.920000076293945
            ],
            "min" : [
                -4.349999904632568,
                -4.049999713897705,
                -11.219999313354492
            ],
            "type" : "VEC3"
        },
        {
            "bufferView" : 1,
            "componentType" : 5126,
            "count" : 109,
            "type" : "VEC3"
        },
        {
            "bufferView" : 2,
            "componentType" : 5126,
            "count" : 109,
            "type" : "VEC2"
        },
        {
            "bufferView" : 3,
            "componentType" : 5123,
            "count" : 109,
            "normalized" : true,
            "type" : "VEC4"
        },
        {
            "bufferView" : 4,
            "componentType" : 5123,
            "count" : 267,
            "type" : "SCALAR"
        },
        {
            "bufferView" : 6,
            "componentType" : 5126,
            "count" : 8,
            "max" : [
                2.6812498569488525,
                3.4499998092651367,
                -6.806249618530273
            ],
            "min" : [
                -2.6812498569488525,
                1.649999976158142,
                -9.600000381469727
            ],
            "type" : "VEC3"
        },
        {
            "bufferView" : 7,
            "componentType" : 5126,
            "count" : 8,
            "type" : "VEC3"
        },
        {
            "bufferView" : 8,
            "componentType" : 5126,
            "count" : 8,
            "type" : "VEC2"
        },
        {
            "bufferView" : 9,
            "componentType" : 5123,
            "count" : 8,
            "normalized" : true,
            "type" : "VEC4"
        },
        {
            "bufferView" : 10,
            "componentType" : 5123,
            "count" : 18,
            "type" : "SCALAR"
        },
        {
            "bufferView" : 12,
            "componentType" : 5126,
            "count" : 17,
            "max" : [
                2.6812498569488525,
                3.4499998092651367,
                -4.650000095367432
            ],
            "min" : [
                -2.6812498569488525,
                -2.4000000953674316,
                -7.049999713897705
            ],
            "type" : "VEC3"
        },
        {
            "bufferView" : 13,
            "componentType" : 5126,
            "count" : 17,
            "type" : "VEC3"
        },
        {
            "bufferView" : 14,
            "componentType" : 5126,
            "count" : 17,
            "type" : "VEC2"
        },
        {
            "bufferView" : 15,
            "componentType" : 5123,
            "count" : 17,
            "normalized" : true,
            "type" : "VEC4"
        },
        {
            "bufferView" : 16,
            "componentType" : 5123,
            "count" : 57,
            "type" : "SCALAR"
        },
        {
            "bufferView" : 18,
            "componentType" : 5126,
            "count" : 66,
            "max" : [
                2.9250001907348633,
                2.2874999046325684,
                -4.9748589248110875e-08
            ],
            "min" : [
                -2.9250001907348633,
                -2.5874998569488525,
                -2.737499952316284
            ],
            "type" : "VEC3"
        },
        {
            "bufferView" : 19,
            "componentType" : 5126,
            "count" : 66,
            "type" : "VEC3"
        },
        {
            "bufferView" : 20,
            "componentType" : 5126,
            "count" : 66,
            "type" : "VEC2"
        },
        {
            "bufferView" : 21,
            "componentType" : 5123,
            "count" : 66,
            "normalized" : true,
            "type" : "VEC4"
        },
        {
            "bufferView" : 22,
            "componentType" : 5123,
            "count" : 180,
            "type" : "SCALAR"
        },
        {
            "bufferView" : 24,
            "componentType" : 5126,
            "count" : 65,
            "max" : [
                2.9250001907348633,
                2.2874999046325684,
                -1.725000023841858
            ],
            "min" : [
                -2.9250001907348633,
                -2.5874998569488525,
                -5.400000095367432
            ],
            "type" : "VEC3"
        },
        {
            "bufferView" : 25,
            "componentType" : 5126,
            "count" : 65,
            "type" : "VEC3"
        },
        {
            "bufferView" : 26,
            "componentType" : 5126,
            "count" : 65,
            "type" : "VEC2"
        },
        {
            "bufferView" : 27,
            "componentType" : 5123,
            "count" : 65,
            "normalized" : true,
            "type" : "VEC4"
        },
        {
            "bufferView" : 28,
            "componentType" : 5123,
            "count" : 246,
            "type" : "SCALAR"
        },
        {
            "bufferView" : 30,
            "componentType" : 5126,
            "count" : 40,
            "max" : [
                4.762499809265137,
                0.7874999642372131,
                -3.5625009536743164
            ],
            "min" : [
                -4.762499809265137,
                -0.8250000476837158,
                -5.025000095367432
            ],
            "type" : "VEC3"
        },
        {
            "bufferView" : 31,
            "componentType" : 5126,
            "count" : 40,
            "type" : "VEC3"
        },
        {
            "bufferView" : 32,
            "componentType" : 5126,
            "count" : 40,
            "type" : "VEC2"
        },
        {
            "bufferView" : 33,
            "componentType" : 5123,
            "count" : 40,
            "normalized" : true,
            "type" : "VEC4"
        },
        {
            "bufferView" : 34,
            "componentType" : 5123,
            "count" : 174,
            "type" : "SCALAR"
        }
    ],
    "bufferViews" : [
        {
            "buffer" : 0,
            "byteLength" : 1308,
            "byteOffset" : 0
        },
        {
            "buffer" : 0,
            "byteLength" : 1308,
            "byteOffset" : 1308
        },
        {
            "buffer" : 0,
            "byteLength" : 872,
            "byteOffset" : 2616
        },
        {
            "buffer" : 0,
            "byteLength" : 872,
            "byteOffset" : 3488
        },
        {
            "buffer" : 0,
            "byteLength" : 534,
            "byteOffset" : 4360
        },
        {
            "buffer" : 0,
            "byteLength" : 458,
            "byteOffset" : 4896
        },
        {
            "buffer" : 0,
            "byteLength" : 96,
            "byteOffset" : 5356
        },
        {
            "buffer" : 0,
            "byteLength" : 96,
            "byteOffset" : 5452
        },
        {
            "buffer" : 0,
            "byteLength" : 64,
            "byteOffset" : 5548
        },
        {
            "buffer" : 0,
            "byteLength" : 64,
            "byteOffset" : 5612
        },
        {
            "buffer" : 0,
            "byteLength" : 36,
            "byteOffset" : 5676
        },
        {
            "buffer" : 0,
            "byteLength" : 548,
            "byteOffset" : 5712
        },
        {
            "buffer" : 0,
            "byteLength" : 204,
            "byteOffset" : 6260
        },
        {
            "buffer" : 0,
            "byteLength" : 204,
            "byteOffset" : 6464
        },
        {
            "buffer" : 0,
            "byteLength" : 136,
            "byteOffset" : 6668
        },
        {
            "buffer" : 0,
            "byteLength" : 136,
            "byteOffset" : 6804
        },
        {
            "buffer" : 0,
            "byteLength" : 114,
            "byteOffset" : 6940
        },
        {
            "buffer" : 0,
            "byteLength" : 230,
            "byteOffset" : 7056
        },
        {
            "buffer" : 0,
            "byteLength" : 792,
            "byteOffset" : 7288
        },
        {
            "buffer" : 0,
            "byteLength" : 792,
            "byteOffset" : 8080
        },
        {
            "buffer" : 0,
            "byteLength" : 528,
            "byteOffset" : 8872
        },
        {
            "buffer" : 0,
            "byteLength" : 528,
            "byteOffset" : 9400
        },
        {
            "buffer" : 0,
            "byteLength" : 360,
            "byteOffset" : 9928
        },
        {
            "buffer" : 0,
            "byteLength" : 471,
            "byteOffset" : 10288
        },
        {
            "buffer" : 0,
            "byteLength" : 780,
            "byteOffset" : 10760
        },
        {
            "buffer" : 0,
            "byteLength" : 780,
            "byteOffset" : 11540
        },
        {
            "buffer" : 0,
            "byteLength" : 520,
            "byteOffset" : 12320
        },
        {
            "buffer" : 0,
            "byteLength" : 520,
            "byteOffset" : 12840
        },
        {
            "buffer" : 0,
            "byteLength" : 492,
            "byteOffset" : 13360
        },
        {
            "buffer" : 0,
            "byteLength" : 687,
            "byteOffset" : 13852
        },
        {
            "buffer" : 0,
            "byteLength" : 480,
            "byteOffset" : 14540
        },
        {
            "buffer" : 0,
            "byteLength" : 480,
            "byteOffset" : 15020
        },
        {
            "buffer" : 0,
            "byteLength" : 320,
            "byteOffset" : 15500
        },
        {
            "buffer" : 0,
            "byteLength" : 320,
            "byteOffset" : 15820
        },
        {
            "buffer" : 0,
            "byteLength" : 348,
            "byteOffset" : 16140
        },
        {
            "buffer" : 0,
            "byteLength" : 138,
            "byteOffset" : 16488
        }
    ],
    "samplers" : [
        {
            "magFilter" : 9729,
            "minFilter" : 9986
        }
    ],
    "buffers" : [
        {
            "byteLength" : 16628,
            "uri" : "data:application/octet-stream;base64,"
        }
    ]
}
