{
    "asset" : {
        "generator" : "Khronos glTF Blender I/O v1.4.40",
        "version" : "2.0"
    },
    "scene" : 0,
    "scenes" : [
        {
            "name" : "Scene",
            "nodes" : [
                0
            ]
        }
    ],
    "nodes" : [
        {
            "mesh" : 0,
            "name" : "Apron__mBottoms"
        }
    ],
    "materials" : [
        {
            "doubleSided" : true,
            "name" : "mBottoms",
            "pbrMetallicRoughness" : {
                "baseColorTexture" : {
                    "index" : 0,
                    "texCoord" : 0
                },
                "metallicFactor" : 0,
                "roughnessFactor" : 0.5
            }
        },
        {
            "doubleSided" : true,
            "name" : "mBody",
            "pbrMetallicRoughness" : {
                "baseColorTexture" : {
                    "index" : 1,
                    "texCoord" : 0
                },
                "metallicFactor" : 0,
                "roughnessFactor" : 0.5
            }
        },
        {
            "doubleSided" : true,
            "name" : "mEye",
            "pbrMetallicRoughness" : {
                "baseColorTexture" : {
                    "index" : 2,
                    "texCoord" : 0
                },
                "metallicFactor" : 0,
                "roughnessFactor" : 0.5
            }
        }
    ],
    "meshes" : [
        {
            "name" : "Apron__mBottoms",
            "primitives" : [
                {
                    "attributes" : {
                        "POSITION" : 0,
                        "NORMAL" : 1,
                        "TEXCOORD_0" : 2,
                        "TEXCOORD_1" : 3,
                        "TEXCOORD_2" : 4,
                        "TEXCOORD_3" : 5,
                        "TEXCOORD_4" : 6,
                        "COLOR_0" : 7,
                        "COLOR_1" : 8,
                        "COLOR_2" : 9,
                        "COLOR_3" : 10,
                        "COLOR_4" : 11
                    },
                    "indices" : 12,
                    "material" : 0
                },
                {
                    "attributes" : {
                        "POSITION" : 13,
                        "NORMAL" : 14,
                        "TEXCOORD_0" : 15,
                        "TEXCOORD_1" : 16,
                        "TEXCOORD_2" : 17,
                        "TEXCOORD_3" : 18,
                        "TEXCOORD_4" : 19,
                        "COLOR_0" : 20,
                        "COLOR_1" : 21,
                        "COLOR_2" : 22,
                        "COLOR_3" : 23,
                        "COLOR_4" : 24
                    },
                    "indices" : 25,
                    "material" : 1
                },
                {
                    "attributes" : {
                        "POSITION" : 26,
                        "NORMAL" : 27,
                        "TEXCOORD_0" : 28,
                        "TEXCOORD_1" : 29,
                        "TEXCOORD_2" : 30,
                        "TEXCOORD_3" : 31,
                        "TEXCOORD_4" : 32,
                        "COLOR_0" : 33,
                        "COLOR_1" : 34,
                        "COLOR_2" : 35,
                        "COLOR_3" : 36,
                        "COLOR_4" : 37
                    },
                    "indices" : 38,
                    "material" : 2
                }
            ]
        }
    ],
    "textures" : [
        {
            "sampler" : 0,
            "source" : 0
        },
        {
            "sampler" : 0,
            "source" : 1
        },
        {
            "sampler" : 0,
            "source" : 2
        }
    ],
    "images" : [
        {
            "bufferView" : 13,
            "mimeType" : "image/png",
            "name" : "mbottoms_alb"
        },
        {
            "bufferView" : 27,
            "mimeType" : "image/png",
            "name" : "mBody_Alb"
        },
        {
            "bufferView" : 41,
            "mimeType" : "image/png",
            "name" : "mEye_Alb.0"
        }
    ],
    "accessors" : [
        {
            "bufferView" : 0,
            "componentType" : 5126,
            "count" : 599,
            "max" : [
                2.180248975753784,
                4.24552583694458,
                2.306164026260376
            ],
            "min" : [
                -2.1802399158477783,
                1.1898319721221924,
                -1.611156940460205
            ],
            "type" : "VEC3"
        },
        {
            "bufferView" : 1,
            "componentType" : 5126,
            "count" : 599,
            "type" : "VEC3"
        },
        {
            "bufferView" : 2,
            "componentType" : 5126,
            "count" : 599,
            "type" : "VEC2"
        },
        {
            "bufferView" : 3,
            "componentType" : 5126,
            "count" : 599,
            "type" : "VEC2"
        },
        {
            "bufferView" : 4,
            "componentType" : 5126,
            "count" : 599,
            "type" : "VEC2"
        },
        {
            "bufferView" : 5,
            "componentType" : 5126,
            "count" : 599,
            "type" : "VEC2"
        },
        {
            "bufferView" : 6,
            "componentType" : 5126,
            "count" : 599,
            "type" : "VEC2"
        },
        {
            "bufferView" : 7,
            "componentType" : 5123,
            "count" : 599,
            "normalized" : true,
            "type" : "VEC4"
        },
        {
            "bufferView" : 8,
            "componentType" : 5123,
            "count" : 599,
            "normalized" : true,
            "type" : "VEC4"
        },
        {
            "bufferView" : 9,
            "componentType" : 5123,
            "count" : 599,
            "normalized" : true,
            "type" : "VEC4"
        },
        {
            "bufferView" : 10,
            "componentType" : 5123,
            "count" : 599,
            "normalized" : true,
            "type" : "VEC4"
        },
        {
            "bufferView" : 11,
            "componentType" : 5123,
            "count" : 599,
            "normalized" : true,
            "type" : "VEC4"
        },
        {
            "bufferView" : 12,
            "componentType" : 5123,
            "count" : 2709,
            "type" : "SCALAR"
        },
        {
            "bufferView" : 14,
            "componentType" : 5126,
            "count" : 2476,
            "max" : [
                4.696181774139404,
                15.882379531860352,
                4.457695960998535
            ],
            "min" : [
                -4.696181774139404,
                0,
                -7.007915019989014
            ],
            "type" : "VEC3"
        },
        {
            "bufferView" : 15,
            "componentType" : 5126,
            "count" : 2476,
            "type" : "VEC3"
        },
        {
            "bufferView" : 16,
            "componentType" : 5126,
            "count" : 2476,
            "type" : "VEC2"
        },
        {
            "bufferView" : 17,
            "componentType" : 5126,
            "count" : 2476,
            "type" : "VEC2"
        },
        {
            "bufferView" : 18,
            "componentType" : 5126,
            "count" : 2476,
            "type" : "VEC2"
        },
        {
            "bufferView" : 19,
            "componentType" : 5126,
            "count" : 2476,
            "type" : "VEC2"
        },
        {
            "bufferView" : 20,
            "componentType" : 5126,
            "count" : 2476,
            "type" : "VEC2"
        },
        {
            "bufferView" : 21,
            "componentType" : 5123,
            "count" : 2476,
            "normalized" : true,
            "type" : "VEC4"
        },
        {
            "bufferView" : 22,
            "componentType" : 5123,
            "count" : 2476,
            "normalized" : true,
            "type" : "VEC4"
        },
        {
            "bufferView" : 23,
            "componentType" : 5123,
            "count" : 2476,
            "normalized" : true,
            "type" : "VEC4"
        },
        {
            "bufferView" : 24,
            "componentType" : 5123,
            "count" : 2476,
            "normalized" : true,
            "type" : "VEC4"
        },
        {
            "bufferView" : 25,
            "componentType" : 5123,
            "count" : 2476,
            "normalized" : true,
            "type" : "VEC4"
        },
        {
            "bufferView" : 26,
            "componentType" : 5123,
            "count" : 12588,
            "type" : "SCALAR"
        },
        {
            "bufferView" : 28,
            "componentType" : 5126,
            "count" : 290,
            "max" : [
                3.193368911743164,
                13.557719230651855,
                2.608093023300171
            ],
            "min" : [
                -3.193368911743164,
                8.436925888061523,
                -0.21306420862674713
            ],
            "type" : "VEC3"
        },
        {
            "bufferView" : 29,
            "componentType" : 5126,
            "count" : 290,
            "type" : "VEC3"
        },
        {
            "bufferView" : 30,
            "componentType" : 5126,
            "count" : 290,
            "type" : "VEC2"
        },
        {
            "bufferView" : 31,
            "componentType" : 5126,
            "count" : 290,
            "type" : "VEC2"
        },
        {
            "bufferView" : 32,
            "componentType" : 5126,
            "count" : 290,
            "type" : "VEC2"
        },
        {
            "bufferView" : 33,
            "componentType" : 5126,
            "count" : 290,
            "type" : "VEC2"
        },
        {
            "bufferView" : 34,
            "componentType" : 5126,
            "count" : 290,
            "type" : "VEC2"
        },
        {
            "bufferView" : 35,
            "componentType" : 5123,
            "count" : 290,
            "normalized" : true,
            "type" : "VEC4"
        },
        {
            "bufferView" : 36,
            "componentType" : 5123,
            "count" : 290,
            "normalized" : true,
            "type" : "VEC4"
        },
        {
            "bufferView" : 37,
            "componentType" : 5123,
            "count" : 290,
            "normalized" : true,
            "type" : "VEC4"
        },
        {
            "bufferView" : 38,
            "componentType" : 5123,
            "count" : 290,
            "normalized" : true,
            "type" : "VEC4"
        },
        {
            "bufferView" : 39,
            "componentType" : 5123,
            "count" : 290,
            "normalized" : true,
            "type" : "VEC4"
        },
        {
            "bufferView" : 40,
            "componentType" : 5123,
            "count" : 1566,
            "type" : "SCALAR"
        }
    ],
    "bufferViews" : [
        {
            "buffer" : 0,
            "byteLength" : 7188,
            "byteOffset" : 0
        },
        {
            "buffer" : 0,
            "byteLength" : 7188,
            "byteOffset" : 7188
        },
        {
            "buffer" : 0,
            "byteLength" : 4792,
            "byteOffset" : 14376
        },
        {
            "buffer" : 0,
            "byteLength" : 4792,
            "byteOffset" : 19168
        },
        {
            "buffer" : 0,
            "byteLength" : 4792,
            "byteOffset" : 23960
        },
        {
            "buffer" : 0,
            "byteLength" : 4792,
            "byteOffset" : 28752
        },
        {
            "buffer" : 0,
            "byteLength" : 4792,
            "byteOffset" : 33544
        },
        {
            "buffer" : 0,
            "byteLength" : 4792,
            "byteOffset" : 38336
        },
        {
            "buffer" : 0,
            "byteLength" : 4792,
            "byteOffset" : 43128
        },
        {
            "buffer" : 0,
            "byteLength" : 4792,
            "byteOffset" : 47920
        },
        {
            "buffer" : 0,
            "byteLength" : 4792,
            "byteOffset" : 52712
        },
        {
            "buffer" : 0,
            "byteLength" : 4792,
            "byteOffset" : 57504
        },
        {
            "buffer" : 0,
            "byteLength" : 5418,
            "byteOffset" : 62296
        },
        {
            "buffer" : 0,
            "byteLength" : 1832,
            "byteOffset" : 67716
        },
        {
            "buffer" : 0,
            "byteLength" : 29712,
            "byteOffset" : 69548
        },
        {
            "buffer" : 0,
            "byteLength" : 29712,
            "byteOffset" : 99260
        },
        {
            "buffer" : 0,
            "byteLength" : 19808,
            "byteOffset" : 128972
        },
        {
            "buffer" : 0,
            "byteLength" : 19808,
            "byteOffset" : 148780
        },
        {
            "buffer" : 0,
            "byteLength" : 19808,
            "byteOffset" : 168588
        },
        {
            "buffer" : 0,
            "byteLength" : 19808,
            "byteOffset" : 188396
        },
        {
            "buffer" : 0,
            "byteLength" : 19808,
            "byteOffset" : 208204
        },
        {
            "buffer" : 0,
            "byteLength" : 19808,
            "byteOffset" : 228012
        },
        {
            "buffer" : 0,
            "byteLength" : 19808,
            "byteOffset" : 247820
        },
        {
            "buffer" : 0,
            "byteLength" : 19808,
            "byteOffset" : 267628
        },
        {
            "buffer" : 0,
            "byteLength" : 19808,
            "byteOffset" : 287436
        },
        {
            "buffer" : 0,
            "byteLength" : 19808,
            "byteOffset" : 307244
        },
        {
            "buffer" : 0,
            "byteLength" : 25176,
            "byteOffset" : 327052
        },
        {
            "buffer" : 0,
            "byteLength" : 76902,
            "byteOffset" : 352228
        },
        {
            "buffer" : 0,
            "byteLength" : 3480,
            "byteOffset" : 429132
        },
        {
            "buffer" : 0,
            "byteLength" : 3480,
            "byteOffset" : 432612
        },
        {
            "buffer" : 0,
            "byteLength" : 2320,
            "byteOffset" : 436092
        },
        {
            "buffer" : 0,
            "byteLength" : 2320,
            "byteOffset" : 438412
        },
        {
            "buffer" : 0,
            "byteLength" : 2320,
            "byteOffset" : 440732
        },
        {
            "buffer" : 0,
            "byteLength" : 2320,
            "byteOffset" : 443052
        },
        {
            "buffer" : 0,
            "byteLength" : 2320,
            "byteOffset" : 445372
        },
        {
            "buffer" : 0,
            "byteLength" : 2320,
            "byteOffset" : 447692
        },
        {
            "buffer" : 0,
            "byteLength" : 2320,
            "byteOffset" : 450012
        },
        {
            "buffer" : 0,
            "byteLength" : 2320,
            "byteOffset" : 452332
        },
        {
            "buffer" : 0,
            "byteLength" : 2320,
            "byteOffset" : 454652
        },
        {
            "buffer" : 0,
            "byteLength" : 2320,
            "byteOffset" : 456972
        },
        {
            "buffer" : 0,
            "byteLength" : 3132,
            "byteOffset" : 459292
        },
        {
            "buffer" : 0,
            "byteLength" : 2766,
            "byteOffset" : 462424
        }
    ],
    "samplers" : [
        {
            "magFilter" : 9729,
            "minFilter" : 9986
        }
    ],
    "buffers" : [
        {
            "byteLength" : 465192,
            "uri" : "data:application/octet-stream;base64,"
        }
    ]
}
