{
    "asset" : {
        "generator" : "Khronos glTF Blender I/O v1.4.40",
        "version" : "2.0"
    },
    "scene" : 0,
    "scenes" : [
        {
            "name" : "Scene",
            "nodes" : [
                0,
                1,
                2
            ]
        }
    ],
    "nodes" : [
        {
            "mesh" : 0,
            "name" : "_000_rci_mdl"
        },
        {
            "mesh" : 1,
            "name" : "_001_rci_mdl"
        },
        {
            "mesh" : 2,
            "name" : "_002_rci_mdl"
        }
    ],
    "materials" : [
        {
            "doubleSided" : true,
            "name" : "cloth",
            "pbrMetallicRoughness" : {
                "baseColorTexture" : {
                    "index" : 0,
                    "texCoord" : 0
                },
                "metallicFactor" : 0,
                "roughnessFactor" : 0.5
            }
        },
        {
            "doubleSided" : true,
            "name" : "b0",
            "pbrMetallicRoughness" : {
                "baseColorTexture" : {
                    "index" : 1,
                    "texCoord" : 0
                },
                "metallicFactor" : 0,
                "roughnessFactor" : 0.5
            }
        },
        {
            "doubleSided" : true,
            "name" : "e",
            "pbrMetallicRoughness" : {
                "baseColorTexture" : {
                    "index" : 2,
                    "texCoord" : 0
                },
                "metallicFactor" : 0,
                "roughnessFactor" : 0.5
            }
        }
    ],
    "meshes" : [
        {
            "name" : "_000_rci_mdl",
            "primitives" : [
                {
                    "attributes" : {
                        "POSITION" : 0,
                        "NORMAL" : 1,
                        "TEXCOORD_0" : 2
                    },
                    "indices" : 3,
                    "material" : 0
                }
            ]
        },
        {
            "name" : "_001_rci_mdl",
            "primitives" : [
                {
                    "attributes" : {
                        "POSITION" : 4,
                        "NORMAL" : 5,
                        "TEXCOORD_0" : 6
                    },
                    "indices" : 7,
                    "material" : 1
                }
            ]
        },
        {
            "name" : "_002_rci_mdl",
            "primitives" : [
                {
                    "attributes" : {
                        "POSITION" : 8,
                        "NORMAL" : 9,
                        "TEXCOORD_0" : 10
                    },
                    "indices" : 11,
                    "material" : 2
                }
            ]
        }
    ],
    "textures" : [
        {
            "sampler" : 0,
            "source" : 0
        },
        {
            "sampler" : 0,
            "source" : 1
        },
        {
            "sampler" : 0,
            "source" : 2
        }
    ],
    "images" : [
        {
            "bufferView" : 4,
            "mimeType" : "image/png",
            "name" : "cloth"
        },
        {
            "bufferView" : 9,
            "mimeType" : "image/png",
            "name" : "b0"
        },
        {
            "bufferView" : 14,
            "mimeType" : "image/png",
            "name" : "e.0"
        }
    ],
    "accessors" : [
        {
            "bufferView" : 0,
            "componentType" : 5126,
            "count" : 396,
            "max" : [
                0.05001400038599968,
                0.0352029986679554,
                -0.008383000269532204
            ],
            "min" : [
                -0.05001400038599968,
                -0.017532000318169594,
                -0.08365000039339066
            ],
            "type" : "VEC3"
        },
        {
            "bufferView" : 1,
            "componentType" : 5126,
            "count" : 396,
            "type" : "VEC3"
        },
        {
            "bufferView" : 2,
            "componentType" : 5126,
            "count" : 396,
            "type" : "VEC2"
        },
        {
            "bufferView" : 3,
            "componentType" : 5123,
            "count" : 1725,
            "type" : "SCALAR"
        },
        {
            "bufferView" : 5,
            "componentType" : 5126,
            "count" : 525,
            "max" : [
                0.054972000420093536,
                0.061861999332904816,
                0
            ],
            "min" : [
                -0.054972000420093536,
                -0.06089700013399124,
                -0.14528100192546844
            ],
            "type" : "VEC3"
        },
        {
            "bufferView" : 6,
            "componentType" : 5126,
            "count" : 525,
            "type" : "VEC3"
        },
        {
            "bufferView" : 7,
            "componentType" : 5126,
            "count" : 525,
            "type" : "VEC2"
        },
        {
            "bufferView" : 8,
            "componentType" : 5123,
            "count" : 2361,
            "type" : "SCALAR"
        },
        {
            "bufferView" : 10,
            "componentType" : 5126,
            "count" : 115,
            "max" : [
                0.03785499930381775,
                0.04543900117278099,
                -0.08771999925374985
            ],
            "min" : [
                -0.03785499930381775,
                0.01191100012511015,
                -0.13556699454784393
            ],
            "type" : "VEC3"
        },
        {
            "bufferView" : 11,
            "componentType" : 5126,
            "count" : 115,
            "type" : "VEC3"
        },
        {
            "bufferView" : 12,
            "componentType" : 5126,
            "count" : 115,
            "type" : "VEC2"
        },
        {
            "bufferView" : 13,
            "componentType" : 5123,
            "count" : 582,
            "type" : "SCALAR"
        }
    ],
    "bufferViews" : [
        {
            "buffer" : 0,
            "byteLength" : 4752,
            "byteOffset" : 0
        },
        {
            "buffer" : 0,
            "byteLength" : 4752,
            "byteOffset" : 4752
        },
        {
            "buffer" : 0,
            "byteLength" : 3168,
            "byteOffset" : 9504
        },
        {
            "buffer" : 0,
            "byteLength" : 3450,
            "byteOffset" : 12672
        },
        {
            "buffer" : 0,
            "byteLength" : 8554,
            "byteOffset" : 16124
        },
        {
            "buffer" : 0,
            "byteLength" : 6300,
            "byteOffset" : 24680
        },
        {
            "buffer" : 0,
            "byteLength" : 6300,
            "byteOffset" : 30980
        },
        {
            "buffer" : 0,
            "byteLength" : 4200,
            "byteOffset" : 37280
        },
        {
            "buffer" : 0,
            "byteLength" : 4722,
            "byteOffset" : 41480
        },
        {
            "buffer" : 0,
            "byteLength" : 1922,
            "byteOffset" : 46204
        },
        {
            "buffer" : 0,
            "byteLength" : 1380,
            "byteOffset" : 48128
        },
        {
            "buffer" : 0,
            "byteLength" : 1380,
            "byteOffset" : 49508
        },
        {
            "buffer" : 0,
            "byteLength" : 920,
            "byteOffset" : 50888
        },
        {
            "buffer" : 0,
            "byteLength" : 1164,
            "byteOffset" : 51808
        },
        {
            "buffer" : 0,
            "byteLength" : 1789,
            "byteOffset" : 52972
        }
    ],
    "samplers" : [
        {
            "magFilter" : 9729,
            "minFilter" : 9986
        }
    ],
    "buffers" : [
        {
            "byteLength" : 54764,
            "uri" : "data:application/octet-stream;base64,"
        }
    ]
}
