{
    "asset" : {
        "generator" : "Khronos glTF Blender I/O v1.4.40",
        "version" : "2.0"
    },
    "scene" : 0,
    "scenes" : [
        {
            "name" : "Scene",
            "nodes" : [
                0,
                1,
                2,
                3
            ]
        }
    ],
    "nodes" : [
        {
            "mesh" : 0,
            "name" : "boc00_mdl_0"
        },
        {
            "mesh" : 1,
            "name" : "boc00_mdl_1"
        },
        {
            "mesh" : 2,
            "name" : "boc00_mdl_2"
        },
        {
            "mesh" : 3,
            "name" : "boc00_mdl_3"
        }
    ],
    "materials" : [
        {
            "doubleSided" : true,
            "name" : "b0.001",
            "pbrMetallicRoughness" : {
                "baseColorTexture" : {
                    "index" : 0,
                    "texCoord" : 0
                },
                "metallicFactor" : 0,
                "roughnessFactor" : 0.5
            }
        },
        {
            "doubleSided" : true,
            "name" : "e.002",
            "pbrMetallicRoughness" : {
                "baseColorTexture" : {
                    "index" : 1,
                    "texCoord" : 0
                },
                "metallicFactor" : 0,
                "roughnessFactor" : 0.5
            }
        },
        {
            "doubleSided" : true,
            "name" : "acc.001",
            "pbrMetallicRoughness" : {
                "baseColorTexture" : {
                    "index" : 2,
                    "texCoord" : 0
                },
                "metallicFactor" : 0,
                "roughnessFactor" : 0.5
            }
        },
        {
            "doubleSided" : true,
            "name" : "cloth.002",
            "pbrMetallicRoughness" : {
                "baseColorTexture" : {
                    "index" : 3,
                    "texCoord" : 0
                },
                "metallicFactor" : 0,
                "roughnessFactor" : 0.5
            }
        }
    ],
    "meshes" : [
        {
            "name" : "boc00_mdl_0",
            "primitives" : [
                {
                    "attributes" : {
                        "POSITION" : 0,
                        "NORMAL" : 1,
                        "TEXCOORD_0" : 2
                    },
                    "indices" : 3,
                    "material" : 0
                }
            ]
        },
        {
            "name" : "boc00_mdl_1",
            "primitives" : [
                {
                    "attributes" : {
                        "POSITION" : 4,
                        "NORMAL" : 5,
                        "TEXCOORD_0" : 6
                    },
                    "indices" : 7,
                    "material" : 1
                }
            ]
        },
        {
            "name" : "boc00_mdl_2",
            "primitives" : [
                {
                    "attributes" : {
                        "POSITION" : 8,
                        "NORMAL" : 9,
                        "TEXCOORD_0" : 10
                    },
                    "indices" : 11,
                    "material" : 2
                }
            ]
        },
        {
            "name" : "boc00_mdl_3",
            "primitives" : [
                {
                    "attributes" : {
                        "POSITION" : 12,
                        "NORMAL" : 13,
                        "TEXCOORD_0" : 14
                    },
                    "indices" : 15,
                    "material" : 3
                }
            ]
        }
    ],
    "textures" : [
        {
            "sampler" : 0,
            "source" : 0
        },
        {
            "sampler" : 0,
            "source" : 1
        },
        {
            "sampler" : 0,
            "source" : 2
        },
        {
            "sampler" : 0,
            "source" : 3
        }
    ],
    "images" : [
        {
            "bufferView" : 4,
            "mimeType" : "image/png",
            "name" : "b0"
        },
        {
            "bufferView" : 9,
            "mimeType" : "image/png",
            "name" : "e.0"
        },
        {
            "bufferView" : 14,
            "mimeType" : "image/png",
            "name" : "acc"
        },
        {
            "bufferView" : 19,
            "mimeType" : "image/png",
            "name" : "cloth"
        }
    ],
    "accessors" : [
        {
            "bufferView" : 0,
            "componentType" : 5126,
            "count" : 745,
            "max" : [
                0.033636998385190964,
                0.03746199980378151,
                0
            ],
            "min" : [
                -0.033636998385190964,
                -0.03804299980401993,
                -0.10260699689388275
            ],
            "type" : "VEC3"
        },
        {
            "bufferView" : 1,
            "componentType" : 5126,
            "count" : 745,
            "type" : "VEC3"
        },
        {
            "bufferView" : 2,
            "componentType" : 5126,
            "count" : 745,
            "type" : "VEC2"
        },
        {
            "bufferView" : 3,
            "componentType" : 5123,
            "count" : 3009,
            "type" : "SCALAR"
        },
        {
            "bufferView" : 5,
            "componentType" : 5126,
            "count" : 89,
            "max" : [
                0.029891999438405037,
                0.030931999906897545,
                -0.06019800156354904
            ],
            "min" : [
                -0.029891999438405037,
                0.006916999816894531,
                -0.09812399744987488
            ],
            "type" : "VEC3"
        },
        {
            "bufferView" : 6,
            "componentType" : 5126,
            "count" : 89,
            "type" : "VEC3"
        },
        {
            "bufferView" : 7,
            "componentType" : 5126,
            "count" : 89,
            "type" : "VEC2"
        },
        {
            "bufferView" : 8,
            "componentType" : 5123,
            "count" : 387,
            "type" : "SCALAR"
        },
        {
            "bufferView" : 10,
            "componentType" : 5126,
            "count" : 1547,
            "max" : [
                0.05208100005984306,
                0.042504001408815384,
                -0.0374859981238842
            ],
            "min" : [
                -0.05170299857854843,
                -0.05362199991941452,
                -0.1568329930305481
            ],
            "type" : "VEC3"
        },
        {
            "bufferView" : 11,
            "componentType" : 5126,
            "count" : 1547,
            "type" : "VEC3"
        },
        {
            "bufferView" : 12,
            "componentType" : 5126,
            "count" : 1547,
            "type" : "VEC2"
        },
        {
            "bufferView" : 13,
            "componentType" : 5123,
            "count" : 6036,
            "type" : "SCALAR"
        },
        {
            "bufferView" : 15,
            "componentType" : 5126,
            "count" : 415,
            "max" : [
                0.015565999783575535,
                0.01630999892950058,
                -0.011640000157058239
            ],
            "min" : [
                -0.015565999783575535,
                -0.013799999840557575,
                -0.045099999755620956
            ],
            "type" : "VEC3"
        },
        {
            "bufferView" : 16,
            "componentType" : 5126,
            "count" : 415,
            "type" : "VEC3"
        },
        {
            "bufferView" : 17,
            "componentType" : 5126,
            "count" : 415,
            "type" : "VEC2"
        },
        {
            "bufferView" : 18,
            "componentType" : 5123,
            "count" : 1518,
            "type" : "SCALAR"
        }
    ],
    "bufferViews" : [
        {
            "buffer" : 0,
            "byteLength" : 8940,
            "byteOffset" : 0
        },
        {
            "buffer" : 0,
            "byteLength" : 8940,
            "byteOffset" : 8940
        },
        {
            "buffer" : 0,
            "byteLength" : 5960,
            "byteOffset" : 17880
        },
        {
            "buffer" : 0,
            "byteLength" : 6018,
            "byteOffset" : 23840
        },
        {
            "buffer" : 0,
            "byteLength" : 43762,
            "byteOffset" : 29860
        },
        {
            "buffer" : 0,
            "byteLength" : 1068,
            "byteOffset" : 73624
        },
        {
            "buffer" : 0,
            "byteLength" : 1068,
            "byteOffset" : 74692
        },
        {
            "buffer" : 0,
            "byteLength" : 712,
            "byteOffset" : 75760
        },
        {
            "buffer" : 0,
            "byteLength" : 774,
            "byteOffset" : 76472
        },
        {
            "buffer" : 0,
            "byteLength" : 5853,
            "byteOffset" : 77248
        },
        {
            "buffer" : 0,
            "byteLength" : 18564,
            "byteOffset" : 83104
        },
        {
            "buffer" : 0,
            "byteLength" : 18564,
            "byteOffset" : 101668
        },
        {
            "buffer" : 0,
            "byteLength" : 12376,
            "byteOffset" : 120232
        },
        {
            "buffer" : 0,
            "byteLength" : 12072,
            "byteOffset" : 132608
        },
        {
            "buffer" : 0,
            "byteLength" : 61147,
            "byteOffset" : 144680
        },
        {
            "buffer" : 0,
            "byteLength" : 4980,
            "byteOffset" : 205828
        },
        {
            "buffer" : 0,
            "byteLength" : 4980,
            "byteOffset" : 210808
        },
        {
            "buffer" : 0,
            "byteLength" : 3320,
            "byteOffset" : 215788
        },
        {
            "buffer" : 0,
            "byteLength" : 3036,
            "byteOffset" : 219108
        },
        {
            "buffer" : 0,
            "byteLength" : 40062,
            "byteOffset" : 222144
        }
    ],
    "samplers" : [
        {
            "magFilter" : 9729,
            "minFilter" : 9986
        }
    ],
    "buffers" : [
        {
            "byteLength" : 262208,
            "uri" : "data:application/octet-stream;base64,"
        }
    ]
}
